<svg xmlns="http://www.w3.org/2000/svg">
  <symbol id="BRK/B">
    <path fill="#fff" d="M0 0h100v100H0z"/><path fill="#552448" d="M0 0h100v100H0z"/><path fill="#552448" d="M100 0H0v100h100V0Z"/><path fill="#fff" d="M50 78.998c-15.99 0-29-13.009-29-29C21 34.009 34.01 21 50 21s29 13.009 29 28.999c0 15.99-13.01 29-29 29Zm0-56.53c-15.182 0-27.533 12.35-27.533 27.53 0 15.182 12.351 27.533 27.533 27.533 15.181 0 27.532-12.35 27.532-27.532 0-15.181-12.35-27.532-27.532-27.532Z"/><path fill="#fff" d="M71.28 56.825a.792.792 0 1 0-.002-1.584.792.792 0 0 0 .003 1.584ZM28.723 56.825a.791.791 0 1 0-.001-1.582.791.791 0 0 0 0 1.582ZM28.677 48.172c-.367-.01-.679.232-.734.551-.052-.282-.299-.52-.668-.529-.394-.01-.76.27-.774.833l-.04 1.558 2.96.074.04-1.605c.014-.57-.333-.87-.784-.882Zm-1.024 1.813-.622-.017.02-.789c.005-.211.138-.343.32-.338.191.005.306.14.302.354l-.02.79Zm1.228.03-.673-.017.02-.816c.005-.244.16-.374.347-.367.212.004.331.15.327.384l-.02.816ZM29.687 46.676l-2.896-.62.439-2.048.541.116-.305 1.433.608.13.3-1.402.54.115-.299 1.404.661.14.307-1.433.541.117-.437 2.048ZM31.237 41.584l.28-.671-1.299.183c.054-.323-.081-.741-.558-.941-.51-.212-1.028-.015-1.267.553l-.534 1.277 2.731 1.143.242-.581-.968-.406.177-.426 1.196-.13Zm-1.63-.272-.256.614-.738-.309.259-.613c.095-.23.309-.347.532-.253.233.098.3.331.204.562ZM33.203 38.139l-1.487.09.106.347.757.501-.347.527-2.47-1.635.348-.526 1.101.728-.523-1.601.43-.648.51 1.748 2.003-.181-.428.65ZM34.023 36.36l-.117-.59c.302 0 .66-.103.945-.398.242-.254.244-.48.118-.598-.37-.359-1.29 1.12-2.095.35-.355-.342-.355-.933.128-1.437.327-.338.699-.521 1.099-.545l.096.579a1.273 1.273 0 0 0-.832.397c-.185.19-.205.38-.077.503.336.322 1.286-1.121 2.084-.356.39.376.412.94-.135 1.513-.398.413-.82.575-1.214.582ZM38.777 32.761l-.717-1.02-1.143.804.715 1.02-.514.361-1.701-2.422.516-.362.667.951 1.144-.803-.666-.95.517-.365 1.7 2.422-.518.364ZM40.044 28.688l-.565.274 1.29 2.663.565-.274-1.29-2.663ZM44.167 29.101c.285-.165.517-.536.364-1.032-.162-.526-.645-.798-1.234-.616l-1.325.409.875 2.827.602-.187-.312-1.003.444-.137.864.833.696-.215-.974-.879Zm-.556-.33-.636.197-.234-.763.635-.196c.237-.074.463.013.537.247.075.242-.065.442-.302.515ZM46.614 29.695l-.343-2.942 2.081-.243.064.552-1.455.17.072.618 1.425-.167.064.551-1.424.168.078.67 1.456-.172.063.552-2.08.243ZM54.424 29.9l.227-1.226-1.376-.251-.223 1.226-.621-.114.534-2.912.621.115-.211 1.144 1.373.252.21-1.143.627.113-.535 2.912-.626-.115ZM58.169 28 56 30.315l.66.269.364-.396 1.174.476-.014.536.663.27.053-3.174-.731-.296Zm.08 2.085-.857-.346.907-1.006-.05 1.352ZM60.59 32.36l1.267-2.041-.733-.458.292-.471 2.006 1.247-.295.47-.73-.454-1.268 2.042-.54-.335ZM64.452 35.342l.846-.92-1.03-.945-.846.92-.463-.428 2.004-2.18.462.426-.786.856 1.03.947.787-.857.468.43-2.004 2.18-.468-.429ZM68.864 35.92l-3.067.81.419.579.516-.142.743 1.029-.297.444.419.579 1.73-2.659-.463-.64Zm-1.042 1.81-.539-.748 1.302-.372-.763 1.12ZM69.09 42.28l1.656-1.288-2.07.34-.267-.615 2.376-1.96.282.648-1.756 1.33 2.188-.337.197.453-1.739 1.367 2.172-.378.28.648-3.055.408-.264-.615ZM73.016 45.028l-3.125-.543.14.7.528.085.244 1.246-.454.28.136.702 2.684-1.694-.153-.776Zm-1.702 1.21-.18-.905 1.34.207-1.16.699ZM70.573 49.304l1.213-.025 1.724-1.17.014.718-1.17.756 1.2.708.013.715-1.771-1.098-1.21.025-.013-.629ZM30.659 63.502l1.044-.683-.768-1.17-1.045.684-.345-.527 2.478-1.624.346.53-.973.637.766 1.169.973-.637.35.531-2.48 1.623-.346-.533ZM35.44 64.53c-.631-.636-1.545-.646-2.178-.016-.633.631-.626 1.544.007 2.179.631.633 1.544.643 2.175.014.632-.63.625-1.543-.005-2.177Zm-.45 1.718c-.393.388-.937.437-1.323.05-.388-.39-.338-.936.052-1.324.394-.392.937-.439 1.326-.05.385.388.338.933-.055 1.324ZM38.087 70.38l1.156-1.795-1.86 1.343-.23-.148.454-2.246-1.155 1.795-.53-.341 1.6-2.49.743.477-.394 1.947 1.605-1.168.746.48-1.6 2.49-.535-.345ZM40.513 71.622l1.076-2.76 1.953.762-.201.518-1.366-.533-.227.579 1.337.52-.2.517-1.337-.519-.245.627 1.364.533-.201.516-1.953-.76ZM44.273 72.487l.436-.416c.162.255.443.5.845.58.343.067.535-.052.569-.223.098-.505-1.642-.482-1.428-1.575.097-.484.592-.801 1.277-.667.462.09.82.305 1.052.628l-.434.394a1.266 1.266 0 0 0-.782-.484c-.263-.053-.431.032-.466.207-.092.457 1.639.476 1.423 1.56-.103.532-.566.856-1.345.703-.562-.11-.925-.378-1.147-.707ZM48.471 73.548l.096-2.96 2.095.069-.019.555-1.464-.047-.02.62 1.433.046-.019.554-1.432-.045-.02.673 1.462.047-.017.556-2.095-.068ZM54.155 72.084c.304-.124.586-.458.504-.97-.086-.546-.527-.882-1.135-.787l-1.369.22.468 2.924.62-.1-.165-1.039.455-.072.741.947.719-.114-.838-1.01Zm-.507-.405-.658.105-.123-.789.655-.104c.246-.04.459.079.498.32.038.25-.125.428-.372.468ZM57.547 72.357l-2.067-2.405.67-.241 1.54 1.865.01-2.417.672-.24-.08 3.172-.745.266ZM59.998 68.049l-.555.297 1.397 2.609.556-.298-1.398-2.608ZM62.09 68.563c-.547-.733-.365-1.638.352-2.172.519-.387 1.032-.33 1.421-.156l-.274.537a.802.802 0 0 0-.814.068c-.433.324-.499.888-.166 1.336.334.45.894.547 1.33.223a.802.802 0 0 0 .298-.76l.59-.111c.052.42-.034.933-.555 1.32-.716.534-1.64.446-2.183-.285ZM66.561 66.825l-2.164-2.02 1.429-1.533.407.38-1.001 1.07.454.426.978-1.051.406.378-.977 1.05.49.46 1.002-1.072.404.38-1.428 1.532ZM68.724 63.704l-.224-.56c.297-.054.629-.224.853-.567.192-.293.15-.514.006-.609-.432-.28-1.063 1.34-1.994.733-.413-.27-.52-.85-.14-1.434.257-.392.587-.643.976-.74l.201.55c-.314.08-.575.292-.74.545-.147.224-.132.411.016.508.39.255 1.055-1.339 1.98-.734.453.295.583.846.149 1.512-.312.477-.696.715-1.083.796ZM46.164 43.126c.891-.344 1.732-1.244 1.732-2.63 0-1.814-1.337-3.033-3.329-3.033h-4.776v11.71h4.898c2.085 0 3.43-1.258 3.43-3.207 0-1.276-.846-2.47-1.955-2.84Zm-4.737-4.183h2.9c1.143 0 1.88.691 1.88 1.761 0 1.077-.72 1.744-1.88 1.744h-2.9v-3.505Zm2.985 8.75h-2.985V43.93h2.985c1.397 0 2.022.945 2.022 1.88 0 1.18-.757 1.884-2.022 1.884ZM60.37 49.173h-1.636v-5.277h-6.076v5.277h-1.634v-11.71h1.634v4.951h6.076v-4.95h1.637v11.709ZM49.138 63.116h-1.635v-5.28h-6.076v5.28H39.79V51.405h1.636v4.95h6.076v-4.95h1.635v11.71ZM56.026 63.323c-1.834 0-3.43-.662-4.496-1.864l-.055-.064.992-1.27.08.095c.42.486 1.601 1.62 3.529 1.62 1.922 0 2.606-.98 2.606-1.899 0-1.285-1.352-1.649-2.92-2.07-1.824-.492-3.894-1.049-3.894-3.346 0-1.918 1.71-3.31 4.07-3.31 1.684 0 3.119.571 4.147 1.652l.061.066-.995 1.215-.08-.09c-.994-1.113-2.32-1.346-3.253-1.346-1.331 0-2.261.709-2.261 1.725 0 1.054 1.246 1.392 2.69 1.785 1.933.524 4.124 1.12 4.124 3.616 0 1.684-1.143 3.485-4.345 3.485Z"/>
  </symbol>
  <symbol id="CRM">
    <path fill="#fff" d="M0 0h100v100H0z"/><path fill="#00A1E0" d="M100 0H0v100h100V0Z"/><path fill="#fff" fill-rule="evenodd" d="M52.663 29.657c-3.078 0-5.863 1.293-7.862 3.376a12.022 12.022 0 0 0-9.575-4.733c-6.65 0-12.042 5.384-12.042 12.026a11.977 11.977 0 0 0 .99 4.783A10.47 10.47 0 0 0 19 54.166c0 5.775 4.633 10.456 10.349 10.456.715 0 1.427-.075 2.127-.222 1.57 4.259 5.661 7.297 10.46 7.297 4.61 0 8.565-2.8 10.263-6.793a9.77 9.77 0 0 0 12.803-4.02c.85.172 1.73.262 2.633.262C75.017 61.146 81 55.11 81 47.662c0-7.447-5.983-13.483-13.365-13.483a13.22 13.22 0 0 0-5.407 1.15c-1.901-3.39-5.473-5.672-9.565-5.672ZM28.231 50.11l-.25.696h-.001c-.032.084-.001.113.017.13l.01.01c.087.064.175.113.264.163l.09.051c.632.336 1.23.432 1.854.432 1.271 0 2.062-.676 2.062-1.764v-.021c0-1.007-.893-1.373-1.729-1.638l-.108-.034h-.001c-.63-.205-1.174-.382-1.174-.797v-.022c0-.355.318-.617.811-.617a3.667 3.667 0 0 1 1.616.414s.124.079.169-.04l.258-.696c.024-.066-.018-.117-.061-.144a3.616 3.616 0 0 0-1.823-.489l-.127.002c-1.164 0-1.977.703-1.977 1.71v.022c0 1.062.897 1.407 1.736 1.646l.135.043c.611.187 1.14.35 1.14.78v.02c0 .396-.343.689-.896.689-.214 0-.899-.005-1.638-.472a2.967 2.967 0 0 1-.121-.076 2.45 2.45 0 0 0-.089-.056c-.037-.022-.127-.062-.167.058Zm18.619 0-.252.696c-.032.084-.001.113.017.13a.07.07 0 0 1 .01.01c.087.064.175.113.263.162l.091.052c.632.336 1.23.432 1.854.432 1.272 0 2.062-.676 2.062-1.764v-.021c0-1.007-.892-1.373-1.728-1.638l-.109-.034c-.63-.205-1.174-.382-1.174-.797v-.022c0-.355.317-.617.811-.617a3.667 3.667 0 0 1 1.616.414s.123.079.17-.04c.022-.065.233-.634.257-.696.024-.066-.019-.117-.061-.144a3.623 3.623 0 0 0-1.824-.489l-.127.002c-1.163 0-1.977.703-1.977 1.71v.022c0 1.062.897 1.407 1.737 1.646l.136.043c.61.187 1.139.35 1.139.78v.02c0 .396-.344.689-.895.689-.216 0-.9-.005-1.64-.472-.055-.033-.096-.06-.136-.085l-.074-.047c-.023-.014-.13-.056-.166.058Zm13.676-1.438c0-.406-.052-.79-.156-1.14a2.548 2.548 0 0 0-.481-.922 2.337 2.337 0 0 0-.817-.62 2.669 2.669 0 0 0-1.138-.229c-.43 0-.813.077-1.137.229a2.334 2.334 0 0 0-.817.62 2.58 2.58 0 0 0-.482.922c-.104.35-.156.733-.156 1.14-.003.386.05.77.156 1.14.096.338.26.652.482.923.223.264.502.474.817.614.324.15.708.224 1.137.224.43 0 .813-.075 1.138-.224.315-.14.594-.35.817-.614.222-.271.386-.586.481-.923.105-.35.156-.733.156-1.14Zm-1.557-1.437c.227.339.34.822.34 1.437 0 .615-.115 1.102-.34 1.443-.224.34-.563.505-1.035.505-.471 0-.808-.164-1.027-.505-.224-.341-.337-.828-.337-1.443 0-.615.113-1.098.335-1.437.221-.337.557-.5 1.03-.5.471 0 .81.163 1.034.5Zm10.38 3.94-.26-.72c-.036-.102-.136-.065-.136-.065-.154.06-.319.114-.493.142a3.788 3.788 0 0 1-.582.042c-.514 0-.922-.153-1.215-.455-.293-.302-.458-.791-.456-1.45.002-.602.148-1.054.408-1.4.258-.342.653-.517 1.178-.517.437 0 .772.05 1.121.16 0 0 .083.037.124-.073l.094-.26a59.2 59.2 0 0 0 .168-.465c.028-.082-.042-.116-.067-.126a4.269 4.269 0 0 0-.708-.18 5.507 5.507 0 0 0-.797-.052c-.445 0-.844.076-1.183.228a2.452 2.452 0 0 0-.855.62c-.228.258-.4.569-.516.922-.115.349-.174.735-.174 1.142 0 .881.239 1.591.707 2.113.47.524 1.175.789 2.096.789a4.38 4.38 0 0 0 1.504-.268s.076-.038.042-.126Zm5.28-2.31c.015-.108.109-.772-.109-1.533a2.243 2.243 0 0 0-.46-.842c-.231-.25-.458-.424-.683-.52a2.605 2.605 0 0 0-1.028-.209c-.449 0-.857.076-1.187.232-.32.145-.602.36-.828.63a2.62 2.62 0 0 0-.486.934c-.105.353-.157.74-.157 1.146-.004.389.05.776.162 1.148.103.34.281.651.521.913.252.267.56.472.904.599.362.14.8.212 1.304.21 1.04-.003 1.585-.235 1.81-.359.04-.022.078-.06.03-.171l-.233-.659c-.038-.097-.136-.062-.136-.062a8.8 8.8 0 0 0-.072.027c-.256.098-.627.24-1.403.238-.559 0-.97-.165-1.23-.422-.265-.263-.396-.65-.418-1.195l3.593.003s.095-.002.104-.094l.002-.014Zm-1.12-.783h-2.562c.05-.341.144-.625.289-.847.221-.337.556-.522 1.028-.522s.782.185 1.007.522c.148.222.212.518.239.847Zm-27.66.784a3.853 3.853 0 0 0-.11-1.534 2.233 2.233 0 0 0-.459-.842c-.231-.25-.458-.424-.683-.52a2.61 2.61 0 0 0-1.029-.209c-.447 0-.856.076-1.187.232-.319.146-.601.361-.827.63-.223.275-.389.593-.487.934-.104.353-.157.74-.157 1.146-.004.389.051.776.163 1.148.103.34.281.651.52.913.252.267.561.471.905.599.36.14.8.212 1.304.21 1.037-.003 1.584-.235 1.81-.359.04-.022.078-.06.03-.171l-.234-.659c-.037-.097-.135-.062-.135-.062a7.29 7.29 0 0 0-.07.027c-.256.097-.628.24-1.407.238-.557 0-.97-.165-1.229-.422-.265-.263-.395-.65-.418-1.195l3.594.003s.094-.002.104-.094c0-.002 0-.007.002-.013Zm-1.12-.784h-2.564c.052-.341.145-.625.291-.847.22-.337.556-.522 1.028-.522.471 0 .783.185 1.007.522.147.222.211.518.239.847Zm-8.309-.101c-.309-.045-.592-.07-.592-.07a7.521 7.521 0 0 0-.561-.016c-.308 0-.606.038-.886.113-.268.07-.522.188-.749.348-.22.156-.395.356-.522.592a1.74 1.74 0 0 0-.193.829c0 .318.056.594.167.82.106.224.267.417.467.562.22.155.47.263.732.318.282.064.602.097.951.097.366 0 .731-.03 1.092-.091.353-.06.786-.148.906-.176.119-.027.251-.064.251-.064.09-.022.083-.117.083-.117l-.002-3.287c0-.72-.193-1.255-.571-1.586-.378-.33-.933-.497-1.65-.497a5.919 5.919 0 0 0-.964.089s-.784.152-1.108.404c0 0-.07.045-.032.144l.255.683c.031.089.118.058.118.058s.026-.01.058-.03c.692-.375 1.566-.364 1.566-.364.388 0 .688.08.889.232.196.152.295.377.295.857v.152Zm-.969 2.665c-.731.044-1.055-.21-1.053-.21-.141-.113-.161-.14-.206-.213-.073-.11-.109-.267-.109-.468 0-.315.105-.542.32-.696-.001.001.31-.268 1.042-.26.516.008.976.084.976.084v1.634s-.456.097-.97.129Zm29.09-3.833c.064-.163.238-.656.272-.754v-.002a.098.098 0 0 0-.054-.127 3.117 3.117 0 0 0-.603-.102c-.452-.027-.702.047-.926.149-.223.1-.47.263-.607.447v-.438c0-.06-.044-.108-.105-.108h-.92c-.06 0-.104.048-.104.108v5.36c0 .061.05.11.11.11h.944c.06-.001.109-.05.109-.11v-2.677c0-.36.04-.718.119-.943.077-.223.184-.402.315-.529.124-.123.276-.215.444-.266a1.718 1.718 0 0 1 .876-.02c.07.007.108-.036.13-.098Zm-8.524-3.113c.027-.081-.042-.115-.067-.125a2.796 2.796 0 0 0-.844-.122c-.65 0-1.161.183-1.521.546-.358.36-.6.909-.723 1.63l-.044.243h-.814s-.101-.004-.122.104l-.133.747c-.01.072.022.117.117.117h.793l-.806 4.498c-.062.361-.135.66-.214.885-.08.223-.157.39-.251.512a.652.652 0 0 1-.329.252 1.321 1.321 0 0 1-.423.062c-.087 0-.203-.015-.289-.032a.856.856 0 0 1-.193-.062s-.093-.035-.13.057l-.266.73c-.026.072.01.128.054.144.108.039.218.07.33.096.2.048.369.051.526.051.33 0 .633-.047.882-.138.256-.097.484-.256.664-.463.21-.23.34-.473.467-.804.141-.393.247-.797.316-1.208l.81-4.58h1.183s.099.004.12-.105l.135-.747c.009-.071-.021-.116-.118-.116h-1.15c.002-.004.004-.019.008-.04a4.65 4.65 0 0 1 .183-.77c.054-.145.14-.277.252-.384a.735.735 0 0 1 .301-.186c.114-.038.243-.056.385-.056.163 0 .324.025.48.074.117.035.132.002.155-.055l.276-.755Zm-16.224 7.755c.061 0 .103-.048.103-.11v-7.669c0-.06-.042-.108-.103-.108h-.953c-.06 0-.102.048-.102.108v7.67c0 .06.041.11.102.11h.953Z" />
  </symbol>
  <symbol id="EL">
    <path fill="#fff" d="M0 0h100v100H0z"/><path fill="#28333E" d="M100 0H0v100h100V0Z"/><path fill="#fff" fill-rule="evenodd" d="M39.637 38.17v11.077h1.519V38.17h3.752v-.714h-9.113v.714h3.842Zm13.847-2.055V35.4h-6.879v.715h6.88Zm-6.879 13.132h6.969v-.715h-5.45v-5.27h4.913v-.715h-4.913v-4.288h5.36v-.715h-6.879v11.703Zm9.113 0h6.968v-.715h-5.45v-5.27h4.914v-.715h-4.914v-4.288h5.36v-.715h-6.878v11.703Zm-36.718 0h6.968v-.715h-5.45v-5.27h4.914v-.715H20.52v-4.288h5.36v-.715H19v11.703Zm43.596 14.83h6.969v-.804h-5.45v-5.27h4.914v-.715h-4.914V52.91h5.36v-.715h-6.878v11.882Zm-43.596 0h6.879v-.804h-5.36V52.285H19v11.792Zm8.487-15.366c.983.536 2.233.804 3.395.804 2.412 0 4.645-1.43 4.645-3.752 0-4.02-6.7-2.68-6.7-5.718 0-1.16 1.072-2.144 2.68-2.144s2.68.894 3.127 1.251V38.08c-.625-.268-1.787-.804-3.216-.804-2.055 0-4.02 1.25-4.02 3.216 0 4.199 6.61 2.68 6.61 5.807 0 1.25-1.25 2.59-3.216 2.59-1.608 0-2.858-.803-3.394-1.16v.982h.089Zm-.983 15.366 5.003-11.882h1.25l1.966 4.556 3.127 7.326h-1.787l-1.876-4.467h-4.735l-1.786 4.467h-1.162Zm7.326-5.181c-.536-1.251-1.34-3.217-2.144-5.182-.804 2.055-1.876 4.646-2.055 5.182h4.199Zm4.735 1.25c0 2.68 1.519 4.11 4.735 4.11 3.395 0 4.735-1.966 4.735-4.02v-7.951h-.894v7.95c0 2.145-1.43 3.395-3.573 3.395-1.876 0-3.306-.982-3.306-3.216v-8.13h-1.519v7.862h-.178Zm33.233-7.861h4.288c2.234-.09 4.11.804 4.11 3.037 0 2.144-2.501 2.859-3.037 2.948L81 64.077h-1.697l-3.574-5.628h-2.233v5.628h-1.608V52.285h-.09Zm3.395 5.539c1.966 0 3.395-.715 3.395-2.502 0-1.519-.893-2.412-2.68-2.323h-2.591v4.825h1.876Zm-24.925 6.253V52.285h4.467c3.752-.09 5.896 2.054 5.896 5.717 0 4.378-2.948 6.075-6.522 5.986h-3.841v.09Zm1.608-.715h2.055c3.216.09 5.181-1.34 5.181-5.092 0-3.484-1.697-5.27-4.556-5.27h-2.77v10.362h.09Z" />
  </symbol>
  <symbol id="GS">
    <path fill="#fff" d="M0 0h100v100H0z"/><path fill="#7399C6" d="M100 0H0v100h100V0Z"/><path fill="#fff" d="M60.337 30.742v-9.186H52.29c-8.572 0-12.947 7.413-12.947 14.342-.174 6.931 2.1 13.375 9.798 14.183-3.674.967-6.998 3.382-7.172 7.252 0 4.511 2.449 5.802 7.698 8.54 3.671 1.773 6.297 3.061 6.472 6.608 0 2.738-1.575 4.673-4.898 4.673-2.626 0-6.474-1.45-8.049-9.831h-1.223v11.122h9.272c5.772 0 10.849-3.388 10.849-8.866 0-5.638-4.726-7.252-8.4-9.185-3.849-1.935-5.949-2.74-5.949-5.963 0-2.418 2.1-4.03 4.9-3.868 2.623 0 4.2 1.612 5.072 3.062.877 1.45 1.225 2.74 1.751 4.514h1.223V35.092h-9.795v1.127c.523.161 1.575.161 2.272.485.877.485 1.4 1.45 1.4 3.061v4.352c0 1.288-.177 3.223-1.049 4.19-.525.645-1.4.966-2.625.966-2.275 0-3.149-1.771-3.498-2.9-.525-2.417-.7-5.802-.7-10.316 0-4.832.526-8.86 1.575-10.796 1.048-1.611 2.274-2.738 4.374-2.576 3.149.159 5.423 3.546 6.472 8.058h1.225Z"/>
  </symbol>
  <symbol id="HD">
    <path fill="#fff" d="M0 0h100v100H0z"/><path fill="#F96302" d="M100 0H0v100h100V0Z"/><path fill="#fff" fill-rule="evenodd" d="M78 22H22v56h56V22Zm-21.224 1.316h-33.46l-.001 13.833v.017c-.002 9.234-.003 18.47 0 27.702.617-.624 1.238-1.245 1.86-1.865.622-.62 1.243-1.24 1.86-1.865.178-.184.414-.336.677-.352.38-.029.733.38.627.755a1.99 1.99 0 0 1-.135.325c-.087.178-.174.357-.167.56.057.234.231.402.4.564l.087.086 2.725 2.726.048.048.062.062.01.01c1.896 1.898 3.794 3.797 5.695 5.694l.001.001c.14.134.296.285.503.301.184 0 .347-.08.511-.16.125-.06.25-.121.385-.148.375-.078.756.297.706.672-.034.325-.264.572-.488.784l-3.578 3.579h15.16c.078-.157.173-.359.033-.516-.187-.217-.393-.418-.6-.62-.133-.13-.267-.262-.397-.399l-.985-.984-.001-.001c-.987-.986-1.974-1.971-2.956-2.963l-.024-.02c-.106-.097-.222-.203-.369-.192a1.195 1.195 0 0 0-.233.086.967.967 0 0 1-.276.093c-.202-.011-.392-.208-.359-.415.064-.186.2-.325.335-.462l.057-.058c.32-.312.633-.627.947-.943.393-.394.786-.788 1.187-1.174a3661.77 3661.77 0 0 0 6.625 6.624l-.973.971-.002.001-.001.002h-.001l-.002.002-.97.968h25.346v-25.34l-.682.68v.001h-.001l-.001.001v.001h-.001l-.001.001-.002.002-.002.002c-.455.454-.912.91-1.365 1.367-.118.123-.275.246-.46.213-.207-.006-.364-.241-.29-.437.016-.057.042-.112.068-.168.051-.11.103-.22.088-.342-.052-.13-.151-.226-.25-.323a3276.775 3276.775 0 0 1-4.46-4.454c-.158-.165-.32-.324-.484-.484a14.994 14.994 0 0 1-.737-.759 97.542 97.542 0 0 0 1.577-1.562v-.001h.001v-.001h.001l.002-.003c.195-.196.39-.393.587-.589a617.497 617.497 0 0 1 3.107 3.099c.774.775 1.548 1.55 2.325 2.322.048.046.094.095.14.144.118.122.236.246.38.338.12.058.248.006.368-.043l.092-.036c.004-3.37.002-6.742.001-10.113l-.001-5.057c-.273.275-.548.549-.823.823-.48.478-.959.955-1.428 1.44a6.643 6.643 0 0 1-.49-.467c-.143-.145-.286-.291-.44-.424a6.04 6.04 0 0 1 .252-.398c.336-.532.56-1.142.638-1.764.118-.913-.056-1.848-.448-2.677l-.007-.016c-.127-.286-.266-.6-.183-.919a.72.72 0 0 1 .364-.353c.23-.106.504-.016.672.157.281.279.56.56.84.841.348.352.698.704 1.053 1.052.004-2.02.002-4.04.001-6.059V26.308l-.001-2.993c-1.239.002-2.478 0-3.718 0-1.86-.002-3.722-.005-5.584.006.367.373.738.743 1.11 1.113v.001c.28.28.56.558.839.84.14.129.218.341.134.52-.1.258-.319.516-.61.533-.208-.02-.391-.114-.573-.207a3.688 3.688 0 0 0-.233-.113c-.695-.302-1.457-.498-2.213-.42-.84.062-1.612.437-2.295.908-.137-.142-.278-.28-.419-.42a19.98 19.98 0 0 1-.489-.493c.322-.325.646-.648.97-.971.431-.43.862-.86 1.287-1.291-2.016-.009-4.035-.008-6.055-.007h-2.02Zm5.006 3.074c.05-.056.14-.106.19-.022 3.904 3.898 7.807 7.8 11.705 11.704l-.023.022a2862.765 2862.765 0 0 0-4.082 4.088c-.18.168-.398.308-.644.325-.342.028-.683-.28-.655-.627.005-.169.079-.318.153-.468.076-.154.152-.308.155-.484.01-.203-.134-.358-.267-.5l-.03-.032c-1.93-1.926-3.856-3.854-5.784-5.783l-2.896-2.897-.037-.036c-.153-.15-.323-.316-.551-.3-.171.003-.323.078-.473.154-.17.085-.34.17-.535.148-.213.006-.387-.162-.493-.336-.145-.302-.011-.666.207-.89l.059-.058c1.335-1.336 2.671-2.672 4.001-4.008Zm6.2.773c-.253-.033-.465.157-.577.364-.107.291.016.605.173.857.308.51.555 1.092.515 1.702-.013.209-.086.4-.16.594-.022.055-.044.111-.064.168.168.197.356.378.544.56.14.135.278.269.408.409.264-.118.544-.235.835-.23.565-.028 1.103.196 1.579.476l.043.024c.21.116.432.239.674.234.308-.034.599-.32.571-.639-.044-.269-.242-.457-.434-.638l-.081-.078c-1.12-1.12-2.24-2.24-3.36-3.366l-.05-.05c-.171-.174-.361-.366-.617-.387Zm-25.256 3.332c.314-.332.638-.653.961-.975.298-.296.596-.592.887-.895a120.753 120.753 0 0 1 1.702 1.691c.185.18.017.482-.19.554-.122.016-.233-.037-.342-.09-.047-.022-.093-.044-.14-.06-.605-.298-1.355-.331-1.96-.006-.062.026-.119.063-.176.1a.758.758 0 0 1-.278.13c-.102-.083-.194-.178-.286-.272a5.021 5.021 0 0 0-.178-.177Zm1.052 1.781a99.087 99.087 0 0 0-1.433-1.422c-.453.467-.913.925-1.372 1.382-.262.261-.524.522-.784.785a.574.574 0 0 0-.185.347c-.022.174.135.342.303.358.094-.004.18-.045.266-.086.112-.052.223-.105.35-.076.113.059.202.15.291.242.039.04.077.08.117.116a1622.61 1622.61 0 0 0 4.39 4.39c.096.102.214.23.146.376-.014.05-.038.103-.062.157-.07.157-.144.323-.01.465.145.207.447.134.599-.034.733-.728 1.467-1.456 2.195-2.195-.73-.724-1.457-1.452-2.183-2.179a834.744 834.744 0 0 0-1.63-1.63c-.335-.329-.666-.662-.998-.996Zm1.49-.527a.33.33 0 0 1 .252-.436c.145-.023.262.088.362.183l.002.002.438.438.004.004.004.004.004.004.003.003c.454.455.909.911 1.367 1.36.023.026.047.05.072.075.092.092.188.187.197.323.022.174-.146.342-.325.325-.149 0-.275-.074-.402-.148-.074-.043-.147-.086-.225-.115-.314-.145-.694-.157-1.002.011a30.044 30.044 0 0 1-.098-.098c-.13-.13-.26-.262-.395-.383.072-.247.14-.51.078-.768-.026-.17-.106-.318-.186-.465-.057-.104-.113-.207-.15-.318Zm11.278.146a.975.975 0 0 0-.554.291c-.593.59-1.184 1.182-1.775 1.774l-.002.002c-.787.788-1.574 1.576-2.367 2.363.551 1.049 1.116 2.091 1.681 3.133v.001h.001c.566 1.044 1.132 2.087 1.684 3.138l.078-.011-.047.058-.048.06c-.053-.059-.114-.104-.173-.147l-.029-.022c-.99-.483-1.982-.962-2.972-1.44h-.001v-.001h-.002l-.001-.001a728.67 728.67 0 0 1-3.318-1.61c-.807.8-1.611 1.604-2.416 2.408l-1.61 1.607c-.146.146-.286.314-.342.516-.084.296.106.621.38.744.23.073.477-.016.661-.162.039-.028.077-.059.115-.09.14-.115.286-.233.479-.207.63.077 1.193.364 1.751.648h.002c.097.05.194.1.291.147 1.663.823 3.326 1.648 4.99 2.474 2.492 1.236 4.985 2.474 7.481 3.703.146-.151.291-.302.443-.442a1.43 1.43 0 0 0-.09-.185c-1.039-1.93-2.082-3.856-3.125-5.782-1.043-1.926-2.086-3.853-3.125-5.782 1.255 1.252 2.507 2.504 3.76 3.757 1.259 1.259 2.518 2.518 3.778 3.775.123.134.252.286.269.47.005.19-.077.356-.16.522-.087.176-.174.351-.154.554.04.296.33.554.633.537.274 0 .51-.168.694-.353.719-.715 1.436-1.434 2.153-2.152.72-.72 1.439-1.442 2.16-2.16.173-.173.324-.392.347-.644.044-.37-.32-.733-.69-.672-.139.025-.267.087-.395.15-.164.079-.328.158-.517.158-.19 0-.331-.132-.465-.258a4.319 4.319 0 0 0-.073-.066c-2.281-2.29-4.57-4.574-6.86-6.859h-.001v-.001h-.001v-.001l-.001-.001a9151.127 9151.127 0 0 1-1.794-1.794c-.142-.145-.29-.295-.336-.5-.013-.2.072-.373.156-.547.065-.133.13-.265.152-.411.072-.38-.32-.745-.695-.689Zm-7.907 1.238c.101-.185.387-.207.521-.05.376.379.756.758 1.136 1.137l.578.576a207.76 207.76 0 0 1-1.927 1.92 2.534 2.534 0 0 0-.173-.175 1.468 1.468 0 0 1-.28-.323l.024-.04c.177-.3.359-.608.407-.962a2.534 2.534 0 0 0-.207-1.518c-.013-.036-.028-.074-.044-.112-.062-.15-.129-.31-.035-.453Zm-9.005.56c-.162.039-.285.162-.397.28-.327.329-.655.655-.984.982-.41.408-.821.816-1.228 1.23-.174.157-.241.459-.028.61.146.118.292.052.44-.015.118-.054.238-.109.36-.069.114.067.205.16.298.254.031.031.062.063.095.093l.445.446.002.002c.45.452.901.904 1.356 1.35-.123.12-.245.242-.367.364s-.244.244-.367.364c.157.174.325.336.493.498.246-.24.487-.481.728-.728.393.388.783.778 1.173 1.168v.001h.001v.001h.001v.001l.001.001c.291.292.582.583.874.872l.016.018.028.029c.059.062.118.124.163.2.03.124-.02.237-.072.35-.05.11-.102.222-.074.344.04.107.129.19.235.235.19.045.359-.09.488-.218.728-.722 1.456-1.45 2.184-2.178l.025-.027c.094-.099.195-.204.221-.343.067-.202-.129-.431-.342-.409a1.17 1.17 0 0 0-.22.082c-.091.041-.183.082-.284.092-.127-.03-.225-.124-.315-.21a3473.623 3473.623 0 0 0-4.554-4.556c-.083-.09-.173-.188-.154-.319.015-.07.044-.138.073-.204.05-.112.097-.222.073-.345-.023-.179-.224-.28-.387-.246Zm-3.264 3.186c.168-.106.42-.039.498.151.046.134-.006.257-.058.38a.757.757 0 0 0-.076.27c-.005.104.069.182.136.253l.011.011.015.016 1.539 1.54.008.009.002.002c1.033 1.033 2.065 2.066 3.099 3.097.146.158.314.091.484.023.156-.062.313-.124.457-.017.196.156.129.464-.04.61l-.93.932-.003.002-.001.002h-.001v.001h-.001v.001h-.001v.001h-.001v.001h-.001v.001h-.001v.001c-.416.415-.832.83-1.243 1.248a4.182 4.182 0 0 0-.053.05c-.101.1-.207.203-.345.246-.18.05-.398-.061-.42-.252-.018-.117.03-.221.077-.325a.628.628 0 0 0 .08-.29.638.638 0 0 0-.157-.247 1626.752 1626.752 0 0 1-4.5-4.5c-.1-.102-.201-.204-.338-.254-.113-.007-.215.038-.317.082-.08.035-.162.07-.249.08-.168.006-.314-.146-.32-.308-.016-.174.107-.314.225-.431l.002-.002c.727-.728 1.454-1.455 2.176-2.182l.029-.027a1.24 1.24 0 0 1 .218-.175Zm-3.48 3.44c-.19.19-.377.379-.57.564l-.02.022-.013.012c-.057.055-.114.11-.151.185.09.112.194.214.299.316.052.05.104.102.155.154.526-.062 1.041.112 1.484.386.114.064.22.142.327.219.137.1.274.2.429.269.274.123.588-.18.52-.454-.043-.112-.126-.197-.207-.282a2.86 2.86 0 0 1-.073-.076c-.267-.263-.532-.528-.797-.794a85.336 85.336 0 0 0-.955-.948c-.144.141-.286.284-.427.426h-.001v.001Zm-1.611 1.612.002-.002.463-.463c1.176 1.181 2.358 2.363 3.54 3.539.249.247.496.497.743.746.396.399.79.796 1.194 1.186.15.168.341.085.516.009.04-.018.079-.035.116-.048.202-.09.437.09.432.302 0 .146-.084.269-.18.37-.507.504-1.01 1.008-1.513 1.511-.251.252-.502.505-.755.757-.106.106-.24.212-.397.201-.174.017-.342-.151-.325-.319.005-.086.04-.165.076-.243a.642.642 0 0 0 .075-.261c.01-.123-.074-.209-.154-.29a798.39 798.39 0 0 1-2.345-2.347c-1.016-1.018-2.032-2.036-3.056-3.047l.018-.023a2.63 2.63 0 0 1 .15-.184c.47-.462.935-.928 1.4-1.394Zm42.695 2.911a179.726 179.726 0 0 0-2.067-2.066l-.358.36-.002.002c-.298.3-.598.602-.905.898.15.196.33.37.515.538.694-.118 1.35.24 1.904.621l.122.089c.169.125.345.256.561.225.291-.045.448-.46.23-.667Zm-44.666-.93c.134.052.235.168.336.283.054.063.109.126.168.177-.09.65.218 1.26.582 1.77l.087.126c.083.117.166.236.216.372.073.246-.168.504-.415.476-.119 0-.206-.085-.284-.163a188.968 188.968 0 0 0-.958-.956v-.001h-.001c-.307-.306-.613-.61-.918-.919.183-.172.36-.351.538-.53.213-.215.426-.43.649-.634ZM45.24 46.91c-1.148-.235-2.358-.196-3.472.162-.94.303-1.815.801-2.56 1.44l.004.033.002.034c.119.13.244.253.368.375.111.109.221.217.327.33a.514.514 0 0 1 .056.055c.056.06.118.125.201.08l.009-.004c.277-.1.566-.203.86-.164.363.028.683.235.934.492l4.162 4.165a5798.84 5798.84 0 0 1 4.149 4.152 1.4 1.4 0 0 1 .375 1.405c-.011.06-.035.118-.058.175-.032.081-.065.162-.065.25.16.18.333.35.506.52.13.128.26.256.384.388.678-.806 1.216-1.742 1.512-2.755a6.746 6.746 0 0 0 .146-3.17c-.364-1.91-1.44-3.623-2.789-4.99-1.377-1.416-3.102-2.559-5.051-2.973Zm4.077-.146c.224.073.43.18.64.288l.093.048c.486.236.97.476 1.456.717.415.206.83.412 1.25.616.078.04.15.1.218.162.569.578 1.14 1.149 1.714 1.72v.001l.582.581c.414.442.935.784 1.5.997.398.151.846.151 1.244.011l.022-.008c.195-.065.406-.135.61-.07.213.084.37.296.387.526-.017.308-.213.566-.42.778-.683.695-1.378 1.383-2.072 2.067-.185.168-.398.341-.655.37-.37.055-.734-.337-.622-.695l.05-.165c.096-.31.193-.626.14-.95-.09-.638-.453-1.203-.856-1.69-.759-.762-1.52-1.522-2.28-2.283-.76-.761-1.523-1.523-2.284-2.287-.09-.094-.183-.185-.276-.275-.15-.148-.302-.296-.441-.459Zm17.502 1.103-.422.42c.258.286.533.557.808.829.184.182.368.363.547.549l-.057-.013c-.35-.08-.702-.16-1.063-.15-.991-.05-1.96.359-2.705.997.168.168.342.342.515.504.18-.061.376-.117.572-.095.207.017.38.151.526.297 1.473 1.473 2.946 2.946 4.424 4.418l.038.038c.174.173.358.356.41.606.034.14 0 .277-.035.414-.017.067-.034.135-.043.202.093.127.209.237.324.346.057.054.114.108.168.164.6-.717 1.008-1.624 1.003-2.57.022-.997-.375-1.95-.941-2.75a7.195 7.195 0 0 0-1.82-1.77c.05-.134.1-.285.028-.42a2.934 2.934 0 0 0-.277-.437c-.08-.111-.16-.222-.227-.341-.291-.47-.482-1.025-.409-1.585a11.776 11.776 0 0 1-.158-.157c-.118-.119-.235-.237-.363-.341-.28.283-.562.565-.843.845Zm-29.727 3.708c.308-.857.795-1.641 1.372-2.341.119.121.24.24.363.36.17.167.342.335.505.508.035.112-.01.22-.054.33a.89.89 0 0 0-.064.196c-.145.482.045 1.008.398 1.355 1.814 1.818 3.63 3.633 5.447 5.449l2.729 2.727c.263.286.582.555.986.616.358.056.71-.067 1.041-.19l.457.454.002.002c.15.148.299.296.448.446a7.644 7.644 0 0 1-2.245 1.35c-1.232.475-2.61.554-3.903.268-1.966-.431-3.696-1.613-5.08-3.052-1.276-1.338-2.307-2.98-2.67-4.81-.247-1.216-.169-2.504.268-3.668Zm26.454-.684c-.56.639-.935 1.45-1.002 2.302-.078.812.146 1.618.504 2.335-.571-.554-1.383-.901-2.19-.767-.985.123-1.752.823-2.424 1.5l.258.256c.085.085.17.17.257.254.173-.1.358-.207.565-.184.335.02.589.258.824.479l.039.036a265.51 265.51 0 0 1 1.354 1.363c.173.177.349.357.438.591.09.275-.006.554-.151.79.172.166.343.338.51.504l.005.005c.465-.476.935-.968 1.237-1.573a2.76 2.76 0 0 0 .157-2.005 6.51 6.51 0 0 0 1.456 1.254c.75.47 1.635.79 2.537.75.93 0 1.809-.408 2.514-.99-.13-.144-.267-.28-.403-.415l-.03-.03-.07-.07-.036.01c-.208.065-.425.132-.637.073-.208-.056-.36-.209-.507-.356a6.768 6.768 0 0 0-.08-.08c-.743-.74-1.482-1.48-2.22-2.22l-.002-.002-.004-.004c-.732-.733-1.464-1.466-2.199-2.198-.134-.135-.263-.286-.296-.476-.047-.178.011-.356.068-.527l.032-.1-.088-.089-.08-.08c-.114-.112-.227-.224-.336-.336Zm-30.52 4.257c.168-.163.387-.286.622-.303.386-.022.74.38.633.756-.032.11-.083.215-.133.32-.082.168-.163.336-.17.526.02.24.202.418.368.58l.058.058 8.624 8.624c.135.129.286.258.476.275.19 0 .356-.083.522-.166.117-.059.235-.118.363-.148.37-.073.74.263.722.633-.01.252-.15.481-.325.66l-4.34 4.34c-.19.185-.425.348-.7.348-.336.01-.65-.308-.621-.65.016-.159.087-.302.157-.446.08-.161.16-.323.162-.506-.01-.185-.14-.33-.26-.463l-.017-.019-.025-.028c-.645-.647-1.29-1.291-1.936-1.935l-.001-.001-.002-.003-.003-.002-.002-.002-.001-.001-.002-.002-.002-.002c-.64-.639-1.279-1.276-1.915-1.916-.011-.008-.023-.02-.036-.033-.045-.046-.098-.1-.155-.04-.224.216-.443.437-.663.658-.22.222-.44.443-.664.659-.302-.303-.605-.605-.907-.913.431-.454.88-.896 1.333-1.333l.003-.048v-.014l.002-.014v-.02c-.773-.758-1.537-1.524-2.303-2.291v-.001a542.122 542.122 0 0 0-1.417-1.414l-.001-.001c-.15-.149-.303-.302-.512-.352-.206-.013-.385.075-.564.162-.128.063-.256.126-.394.151-.425.073-.812-.408-.666-.806.068-.261.268-.455.453-.634l.04-.038 1.8-1.802c.802-.8 1.603-1.6 2.4-2.403Zm26.186 2.673c-.39-.393-.779-.785-1.182-1.162l-.043.044h-.001c-.725.725-1.455 1.455-2.185 2.18l-.002.002c-.122.128-.266.279-.25.474-.01.179.157.33.33.347a.89.89 0 0 0 .254-.087c.128-.058.256-.116.402-.076.097.05.175.13.253.21a2011.526 2011.526 0 0 0 4.972 4.97c.117.127.056.263-.006.403-.056.127-.114.256-.039.381.106.213.431.308.605.118.395-.39.787-.781 1.179-1.173s.784-.784 1.178-1.173a3.55 3.55 0 0 1 .064-.067c.123-.127.256-.263.256-.449.016-.162-.118-.302-.264-.352-.125-.024-.236.029-.348.081-.104.049-.208.097-.324.087-.09-.018-.16-.08-.229-.142a1.68 1.68 0 0 0-.062-.054c-1.26-1.26-2.52-2.52-3.774-3.78-.264-.258-.524-.52-.784-.782Zm-6.177 3.828c.26-.255.516-.513.772-.77.404-.407.808-.813 1.222-1.207.3.303.6.604.902.905.3.3.602.602.901.904.202.196-.011.493-.218.583-.114.013-.222-.04-.325-.09a2.191 2.191 0 0 0-.084-.04c-.515-.251-1.109-.374-1.674-.229-.324.066-.61.236-.894.405l-.092.054a22.306 22.306 0 0 0-.51-.515Zm-1.428 1.433c-.432.43-.864.86-1.293 1.294-.18.168-.247.504-.011.656.155.11.306.042.459-.029.116-.053.234-.108.358-.084.196.116.353.28.51.443.071.074.143.148.218.218l4.083 4.083.121.12c.134.13.269.261.355.428.015.12-.035.228-.086.336-.058.126-.116.251-.071.392.041.146.194.2.327.247l.031.011c.14-.061.291-.129.398-.246.35-.358.705-.712 1.06-1.067.406-.406.813-.811 1.213-1.224a234.916 234.916 0 0 1-1.732-1.726c-.383-.385-.767-.77-1.152-1.152-.672-.66-1.339-1.328-2.004-1.994l-.001-.001a336.974 336.974 0 0 0-1.747-1.74c-.343.346-.69.69-1.036 1.034Zm4.139-.095c-.09-.23.123-.498.363-.459.112.028.197.1.275.18.252.254.505.506.758.758v.001c.337.336.673.671 1.006 1.01.044.045.09.088.137.132.158.147.318.296.378.512l-.009.015-.014.024c-.067.117-.145.254-.296.269-.179.018-.326-.068-.476-.155-.08-.047-.16-.094-.247-.125a1.204 1.204 0 0 0-1.08.005l-.18-.181a23.707 23.707 0 0 0-.352-.35c.123-.264.179-.566.09-.846-.039-.163-.117-.31-.195-.455a2.456 2.456 0 0 1-.159-.335Zm4.143 1.423c-.14-.168-.425-.14-.543.039-.118.164-.036.358.037.533.017.04.034.079.047.117.404.85.32 1.92-.28 2.66l.204.206c.102.103.203.205.3.309.429-.398.84-.814 1.252-1.23.267-.27.533-.539.803-.803-.374-.385-.756-.766-1.137-1.147l-.683-.684Zm-10.505 2.117c.997-.084 1.988.274 2.811.817.644.431 1.243.93 1.703 1.551.548.734.884 1.63.89 2.554a3.988 3.988 0 0 1-1.148 2.862 21.862 21.862 0 0 1-.51-.51l.02-.036c.095-.18.197-.37.165-.58-.056-.336-.285-.61-.515-.84l-3.78-3.78c-.258-.252-.549-.526-.93-.554-.207-.023-.392.084-.565.184-.054-.06-.115-.114-.176-.169-.122-.11-.244-.219-.311-.368.616-.633 1.456-1.075 2.346-1.131Zm-25.897.075c-.057.026-.114.053-.171.076-.004 2.214-.003 4.43-.001 6.646v3.322c3.316 0 6.631 0 9.952.005a6.82 6.82 0 0 1 .055-.112c.088-.176.177-.355.186-.554-.024-.208-.171-.364-.31-.512l-.077-.082a5622.86 5622.86 0 0 1-3.367-3.364c-1.687-1.687-3.375-3.373-5.066-5.058a3.989 3.989 0 0 1-.134-.135c-.16-.166-.323-.336-.555-.38-.183-.004-.348.072-.512.148Z" />
  </symbol>
  <symbol id="JPM">
    <path fill="#fff" d="M0 0h100v100H0z"/><path fill="#28333E" d="M100 0H0v100h100V0Z"/><path fill="#fff" d="M57.203 51.556c-.456 0-.912.182-1.185.456-.274.364-.456.73-.456 1.094 0 .547.273 1.094.73 1.732-.73.547-1.277.912-1.55 1.277-.274.364-.366.73-.366 1.276 0 .456.092.82.365 1.186.182.364.456.638.82.82.365.182.73.274 1.095.274.82 0 1.55-.365 2.188-1.186.547.82 1.277 1.186 2.006 1.186.365 0 .638-.092.912-.274.273-.182.456-.456.547-.82h-.274c-.182.273-.547.455-.911.455-.274 0-.548-.09-.73-.273-.273-.182-.547-.547-1.003-1.185.183-.274.365-.639.547-1.095.274-.638.547-1.002.73-1.276.273-.182.547-.365.82-.456v-.273h-2.553v.273c.639.091.912.365.912.82 0 .183-.091.456-.182.821-.091.365-.274.639-.547 1.003-.639-.912-1.277-1.823-2.006-2.735 1.094-.547 1.732-1.185 1.732-1.733 0-.364-.182-.729-.547-.911-.273-.365-.638-.456-1.094-.456Zm10.85 0c-.73 0-1.368.182-1.915.456a4.221 4.221 0 0 0-1.368 1.459c-.364.638-.455 1.367-.455 2.188 0 1.185.364 2.097 1.094 2.826.73.73 1.641 1.094 2.735 1.094 1.003 0 1.915-.364 2.553-1.185.182.274.273.547.365.82h.273V56.48h-.273c-.091.456-.183.912-.456 1.368-.274.456-.547.82-1.003 1.003-.456.182-.82.273-1.277.273-.729 0-1.458-.273-1.914-.911-.547-.639-.73-1.46-.73-2.644 0-1.186.274-2.189.73-2.827.456-.638 1.094-1.003 1.914-1.003.639 0 1.277.183 1.733.639.547.364.912 1.094 1.003 2.188h.273l-.09-2.918h-.274c0 .365-.092.638-.274 1.003-.273-.273-.547-.547-1.094-.82-.456-.183-.912-.274-1.55-.274Zm-45.315 0c-.73 0-1.367.182-1.915.456a4.221 4.221 0 0 0-1.367 1.459c-.365.638-.456 1.367-.456 2.188 0 1.185.365 2.097 1.094 2.826.73.73 1.641 1.094 2.735 1.094 1.003 0 1.915-.364 2.553-1.094.183.274.274.547.365.82h.274v-2.734h-.274c-.091.456-.182.911-.456 1.367-.273.456-.547.82-1.003 1.003-.456.182-.82.274-1.276.274-.73 0-1.46-.274-1.915-.912-.547-.638-.73-1.459-.73-2.644s.274-2.188.73-2.827c.456-.638 1.094-1.003 1.915-1.003.638 0 1.276.183 1.732.639.547.364.912 1.094 1.003 2.188h.274l-.092-2.918h-.273c0 .365-.182.639-.274 1.003-.273-.273-.547-.547-1.003-.82-.547-.183-1.094-.365-1.64-.365Zm6.656-11.306c-.456 0-1.094 0-1.915.091h-1.003v.274h.183c.364 0 .638 0 .82.09.092.092.183.183.274.366 0 .182.091.638.091 1.185v3.92c0 .639 0 1.095-.091 1.277 0 .182-.091.273-.274.365-.09.09-.364.09-.729.09h-.182v.274h3.647v-.273h-.274c-.365 0-.638 0-.73-.091-.09-.091-.182-.274-.273-.456V44.536h.912c.912 0 1.55-.092 1.915-.274.364-.183.638-.456.82-.73.183-.364.274-.73.274-1.185 0-.456-.183-.912-.456-1.276-.274-.365-.638-.547-1.094-.639a9.672 9.672 0 0 0-1.915-.182Zm-7.568.091v.274h.183c.364 0 .638 0 .82.09.092.092.183.183.274.366 0 .182.091.638.091 1.185v2.735c0 .912 0 1.55-.091 1.915s-.274.73-.547 1.003a1.51 1.51 0 0 1-1.094.456c-.183 0-.365 0-.547-.092-.183-.09-.183-.182-.183-.273 0-.091 0-.091.091-.182.092-.091.092-.183.092-.274 0-.182-.091-.273-.183-.456a.697.697 0 0 0-.456-.182c-.182 0-.273.091-.455.182a.697.697 0 0 0-.183.456c0 .274.183.547.456.82.365.183.82.365 1.368.365.547 0 1.003-.09 1.367-.273a4.05 4.05 0 0 0 1.003-.73c.274-.364.365-.638.456-1.002.091-.365.091-.821.091-1.55v-2.736c0-.638 0-1.094.092-1.276 0-.183.09-.274.273-.365.091-.091.365-.091.73-.091h.182v-.274h-3.83v-.09Zm12.036 0v.274h.182c.365 0 .638 0 .82.09.092.092.183.183.274.366 0 .182.091.638.091 1.185v3.465c0 .638 0 1.094-.09 1.367-.092.274-.183.456-.366.639-.182.182-.455.273-.82.273v.273h2.826V48c-.364 0-.638-.091-.82-.273-.183-.183-.365-.365-.365-.639 0-.273-.091-.638-.091-1.276v-4.65l3.191 7.111h.274l3.1-7.111v5.106c0 .638 0 1.094-.092 1.276 0 .183-.09.274-.273.365-.091.091-.365.091-.73.091H40.7v.273h3.83V48h-.365c-.365 0-.639 0-.73-.091-.09-.091-.182-.274-.273-.456 0-.182-.091-.638-.091-1.277v-3.92c0-.638 0-1.094.09-1.277 0-.182.092-.273.274-.364.091-.092.365-.092.82-.092h.274v-.273h-2.461l-2.918 6.565-2.826-6.474h-2.462ZM57.294 51.83c.274 0 .547.092.73.274.182.182.273.456.273.73 0 .546-.365 1.002-1.185 1.458-.456-.638-.73-1.185-.73-1.55 0-.273.092-.547.274-.73.091-.09.365-.182.638-.182ZM29.485 40.523c.73 0 1.277.183 1.55.456.365.274.456.821.456 1.46 0 .455-.091.82-.273 1.093a1.418 1.418 0 0 1-.73.547 3.4 3.4 0 0 1-1.094.183h-.547v-3.739h.638ZM43.071 53.38c-.456 0-.821.092-1.095.456a1.51 1.51 0 0 0-.455 1.094c0 .274.09.547.182.821.091.273.273.456.547.638.273.183.638.365 1.094.547.547.183.912.456 1.094.639.183.182.274.455.274.729 0 .274-.091.547-.365.82-.273.274-.547.365-1.003.365-.912 0-1.55-.638-1.732-1.823h-.183v1.914h.183c.09-.273.09-.456.182-.547.456.456 1.003.73 1.641.73a2.24 2.24 0 0 0 1.368-.456c.365-.274.547-.73.547-1.277a1.82 1.82 0 0 0-.182-.82c-.183-.274-.365-.456-.547-.547a6.069 6.069 0 0 0-1.095-.547c-.547-.274-.911-.456-1.094-.639-.182-.182-.273-.455-.273-.729 0-.182.091-.456.273-.638.183-.183.456-.274.82-.274.366 0 .73.091 1.004.365.273.273.456.638.547 1.094h.182v-1.55h-.182c0 .182-.091.365-.182.547-.274-.273-.456-.456-.73-.547-.365-.365-.638-.365-.82-.365Zm5.288-11.305c-.912 0-1.733.273-2.37.82-.639.547-.913 1.368-.913 2.28 0 1.002.274 1.732.912 2.37.638.547 1.459.912 2.37.912 1.004 0 1.824-.274 2.371-.912.639-.547.912-1.367.912-2.28 0-1.002-.365-1.732-1.003-2.279-.547-.638-1.367-.911-2.28-.911Zm14.132 0c-.912 0-1.732.364-2.28 1.003a3.502 3.502 0 0 0-.82 2.279c0 .912.274 1.641.912 2.188.547.547 1.276.82 2.188.82a3.66 3.66 0 0 0 1.368-.273c.364-.182.638-.182.911-.182h.183v-.638c0-.547 0-.821.091-1.003 0-.183.091-.274.182-.274.092-.091.274-.091.639-.091v-.182H63.22v.182h.182c.273 0 .365 0 .456.091.091 0 .182.091.182.182 0 .092.091.365.091.639 0 .273-.09.547-.182.73a.934.934 0 0 1-.547.455c-.274.091-.547.182-.82.182-.639 0-1.095-.182-1.55-.638-.457-.456-.639-1.185-.639-2.28 0-1.093.182-1.823.638-2.279.456-.456.912-.638 1.46-.638.546 0 1.002.182 1.367.547.364.365.638.82.73 1.459h.181v-2.006h-.182c0 .274-.091.456-.182.73-.456-.73-1.094-1.003-1.915-1.003Zm13.494 11.305c-.912 0-1.64.274-2.28.821-.637.547-.91 1.276-.91 2.188 0 .912.273 1.641.91 2.28.64.547 1.368.82 2.28.82 1.003 0 1.733-.273 2.37-.82a3.02 3.02 0 0 0 .913-2.189c0-.911-.274-1.732-.912-2.279-.73-.547-1.459-.82-2.37-.82Zm-38.476 0-1.733 4.103c-.09.274-.182.456-.182.547-.182.456-.365.73-.456.912-.091.182-.364.274-.547.274v.182h1.824v-.182a.697.697 0 0 1-.456-.183c-.091-.09-.183-.182-.183-.364 0-.183.092-.547.365-1.094l.183-.365h2.279l.456 1.094.182.547c0 .091-.091.182-.182.273-.091 0-.274.092-.547.092v.182h2.37v-.182a.697.697 0 0 1-.456-.183c-.09-.09-.182-.182-.273-.364l-.274-.639-2.005-4.74h-.365v.09ZM54.74 42.074H52.553v.182h.091c.274 0 .547 0 .638.091.092.091.183.182.183.274v4.923c0 .183-.092.274-.183.274-.09.09-.273.09-.547.09h-.182v.183h2.918-.274c-.274 0-.456 0-.547-.091-.091-.091-.182-.182-.182-.365v-2.279h.09c.183 0 .274 0 .365.091l.456.456c.183.273.365.547.639.82.638.821 1.094 1.368 1.367 1.642h1.641v-.274a1.54 1.54 0 0 1-.911-.273c-.274-.183-.639-.639-1.094-1.186-.547-.73-1.003-1.185-1.277-1.367.547-.092 1.003-.274 1.277-.547.273-.274.455-.639.455-1.003 0-.365-.09-.639-.364-.912-.183-.274-.547-.456-.912-.547a5.713 5.713 0 0 0-1.459-.182Zm14.588 0-1.823 4.194c-.091.273-.183.456-.183.547-.182.456-.364.82-.455.912-.092.182-.365.273-.639.273v.182h1.824v-.09c-.182 0-.365 0-.456-.092a.696.696 0 0 1-.182-.456c0-.182.09-.547.364-1.094l.183-.365h2.28l.455 1.094c.182.365.182.547.182.639 0 .09-.09.182-.182.273-.091 0-.273.091-.638.091v.183h2.37v-.274a.696.696 0 0 1-.456-.182c-.09-.091-.182-.182-.273-.365l-.274-.638-2.005-4.832h-.092ZM27.39 53.47v.182h.09c.274 0 .456 0 .547.091.092.091.183.182.183.274 0 .182.091.456.091.911v2.918c0 .456 0 .82-.091.912 0 .091-.091.273-.183.273-.09.092-.273.092-.547.092h-.182v.182h2.735v-.182h-.09c-.274 0-.457 0-.548-.092-.091-.09-.182-.182-.182-.273v-2.371h3.1v2.37c0 .092-.091.274-.183.274-.09.092-.273.092-.547.092H31.4v.182h2.644v-.182h-.091c-.274 0-.456 0-.547-.092-.091-.09-.182-.182-.182-.273v-3.83c0-.456 0-.82.09-.911 0-.092.092-.183.183-.274.091-.091.274-.091.547-.091h.091v-.182h-2.644v.182h.183c.273 0 .455 0 .547.091.09.091.182.182.182.274v2.097h-3.1v-1.186c0-.456 0-.82.091-.911 0-.092.091-.183.182-.274.092-.091.274-.091.547-.091h.092v-.182h-2.827Zm19.055 0v.182c.274 0 .456 0 .547.091.091.091.182.182.182.274V58.759c0 .091-.09.182-.182.273-.091.092-.273.092-.547.092h-.091v.182h4.923l.092-1.824h-.183c-.09.456-.273.82-.456 1.003-.182.274-.364.456-.547.456-.182.091-.456.091-.73.091h-.455c-.365 0-.638-.09-.73-.182-.09-.091-.09-.547-.09-1.276v-1.277h.638c.273 0 .456 0 .547.091.09 0 .182.091.273.183.091.09.091.364.091.638h.183v-2.006h-.183c0 .273 0 .456-.09.547a.196.196 0 0 1-.183.182c-.091.091-.274.091-.638.091h-.639v-2.461h.821c.456 0 .73 0 .912.09.182 0 .364.183.456.274.09.183.273.456.364.912h.183l-.183-1.459h-4.285v.092Zm26.897-11.306v.182c.365 0 .547 0 .638.091.092 0 .183.183.183.274 0 .182.09.456.09.911v3.283c0 .365 0 .638-.09.73 0 .09-.092.182-.274.273-.182.091-.365.182-.638.182v.182h2.28v-.182c-.365 0-.548 0-.73-.091-.182-.091-.274-.182-.274-.273 0-.092-.09-.365-.09-.73v-4.285l4.376 5.744h.182V43.35c0-.273 0-.456.091-.547 0-.091.091-.182.274-.274.182-.09.365-.09.638-.182v-.182h-2.188v.182c.273 0 .456 0 .638.091s.273.183.365.274c.09.09.09.273.09.547v3.647l-3.646-4.832H73.34v.09Zm-24.982.09c.73 0 1.276.274 1.732.73.365.547.547 1.186.547 2.188 0 1.003-.182 1.733-.638 2.189-.365.456-.912.73-1.641.73-.82 0-1.368-.274-1.733-.73-.364-.456-.547-1.186-.547-2.189 0-1.002.183-1.732.547-2.188.456-.456 1.003-.73 1.733-.73Zm27.626 11.307c.73 0 1.277.273 1.641.73.365.455.547 1.184.547 2.096 0 .912-.182 1.641-.547 2.097-.364.456-.911.73-1.55.73-.729 0-1.367-.274-1.732-.73-.365-.456-.547-1.185-.547-2.097 0-.911.182-1.64.547-2.097.365-.456.912-.73 1.641-.73ZM54.741 42.256c.73 0 1.185.091 1.368.365.182.273.273.638.273 1.002 0 .274 0 .456-.09.639-.092.182-.183.273-.274.456-.092.09-.274.182-.456.273-.183.091-.365.091-.639.091h-.638v-2.826h.456ZM37.326 54.474l1.003 2.461h-2.005l1.002-2.462Zm31.821-11.306 1.094 2.553h-2.188l1.094-2.553ZM56.473 55.112c.639.82 1.368 1.823 2.189 3.1-.456.547-1.003.82-1.55.82-.456 0-.912-.182-1.368-.638-.365-.456-.547-.912-.547-1.367 0-.274.091-.639.365-1.004.182-.364.456-.638.912-.911Zm23.889 3.1a.697.697 0 0 0-.456.182.697.697 0 0 0-.183.456c0 .182.092.365.183.456a.697.697 0 0 0 .456.182.696.696 0 0 0 .456-.182.696.696 0 0 0 .182-.456.696.696 0 0 0-.182-.456.696.696 0 0 0-.456-.182Z"/>
  </symbol>
  <symbol id="ORCL">
    <path fill="#fff" d="M0 0h100v100H0z"/><path fill="#E60012" d="M100 0H0v100h100V0Z"/><path fill="#fff" d="M45.764 51.246h4.096l-2.164-3.488-3.973 6.304-1.81.002 4.836-7.571c.205-.308.56-.493.944-.493.38 0 .73.18.936.48l4.853 7.584-1.812-.002-.85-1.409H46.67l-.905-1.407Zm18.795 1.409v-6.576h-1.536v7.218c0 .2.081.391.224.534.15.149.349.231.563.231h7l.904-1.407h-7.155Zm-25.4-1.177a2.7 2.7 0 0 0 0-5.4h-6.718v7.984h1.534v-6.576h5.079a1.292 1.292 0 1 1 0 2.585l-4.326-.001 4.581 3.992h2.23l-3.082-2.586.703.002Zm-16.167 2.584a3.992 3.992 0 1 1 0-7.983h4.64a3.992 3.992 0 0 1 0 7.985l-4.64-.002Zm4.537-1.406a2.584 2.584 0 1 0 0-5.17h-4.434a2.585 2.585 0 0 0 0 5.17h4.434Zm29.156 1.406a3.992 3.992 0 1 1 0-7.983H62.2l-.904 1.407h-4.507a2.585 2.585 0 1 0 0 5.17h5.535l-.902 1.406h-4.737Zm18.78-1.406a2.584 2.584 0 0 1-2.485-1.879h6.562l.904-1.407h-7.468a2.585 2.585 0 0 1 2.487-1.884h4.505l.905-1.407H75.36a3.993 3.993 0 0 0 0 7.983h4.738L81 52.656h-5.535Z"/>
  </symbol>
  <symbol id="PFE">
    <path fill="#fff" d="M0 0h100v100H0z"/><path fill="#0095FF" d="M100 0H0v100h100V0Z"/><path fill="#fff" d="M22.1 55.649c1.855-5.32 12.423-7.565 27.829-5.71l2.983-10.967c-15.252-1.937-26.384.246-28.24 7.185L22.1 55.65Z"/><path fill="#fff" d="M77.758 44.23c-1.855 5.32-12.413 7.554-27.829 5.7l-2.983 10.967c15.253 1.937 26.384-.246 28.24-7.186l2.572-9.481Z"/><path fill="#fff" d="M31.858 32.668c22.51 1.62 45.5 12.751 43.327 21.064l2.02-7.421c.645-2.337.963-3.547.963-4.52 0-8.467-22.191-18.8-43.327-20.09l-2.983 10.967ZM68 67.2c-22.51-1.608-45.5-12.74-43.317-21.053l-2.02 7.421c-.645 2.337-.963 3.547-.963 4.52 0 8.467 22.192 18.8 43.328 20.09L68 67.202Z"/>
  </symbol>
  <symbol id="T">
    <path fill="#fff" d="M0 0h100v100H0z"/><path fill="#0096DA" d="M100 0H0v100h100V0Z"/><path fill="#fff" fill-rule="evenodd" d="M37.172 25.22s3.267-.587 6.108-.587c4.316 0 6.474.586 7.214.586h12.75A27.999 27.999 0 0 0 50.17 22c-4.713 0-9.094 1.173-12.997 3.22ZM69.833 30.048h-9.517c-3.69 0-11.584-.644-14.823-.644h-8.916c-2.045 0-6.109.644-6.109.644 1.202-1.176 2.19-2.007 2.871-2.461 0 0 2.5.515 4.715.515l7.895-.004c2.953 0 9.542-1.254 11.756-1.254l8.26-.004c1.4.95 2.662 2.027 3.868 3.208ZM73.838 34.876H61.849c-2.496 0-10.277-.814-13.175-.814H32.77c-2.043 0-6.26.814-6.26.814.731-1.128 1.121-1.622 2.001-2.632 0 0 2.386.398 4.602.398h15.561c3.75 0 9.94-.972 12.27-.972h10.47a28.095 28.095 0 0 1 2.424 3.206ZM24.01 39.646c.443-1.106.952-1.658 1.525-2.69 0 0 3.09.57 5.08.57l21.183.001c2.5 0 9.202-1.087 10.907-1.087l12.11.001a27.965 27.965 0 0 1 1.52 3.207h-12.95c-2.328 0-8.235-.758-11.472-.758H30.386c-2.5 0-6.376.756-6.376.756ZM22.559 44.533s4.873-.93 6.691-.93h22.607c2.043 0 10.506.93 13.12.93h12.798a27.935 27.935 0 0 0-.85-3.205H64.41c-2.84 0-10.168.743-12.669.743H29.42c-2.272 0-6.004-.745-6.004-.745a27.999 27.999 0 0 0-.857 3.207ZM22 49.361s5.83-1.043 7.646-1.043H50.55c3.18 0 11.871 1.043 14.482 1.043h13.283a28.37 28.37 0 0 0-.27-3.206H64.467c-2.672 0-10.34.686-13.918.686H30.158c-2.896 0-7.887-.688-7.887-.688-.15 1.05-.24 2.124-.271 3.208ZM22 50.983s8.5.743 10.999.743h14.825c3.52 0 12.835-.743 15.28-.743H78.33a28.316 28.316 0 0 1-.276 3.209H63.1c-2.952 0-11.812-1.103-15.393-1.103H33.284c-2.614 0-10.997 1.1-10.997 1.1A28.297 28.297 0 0 1 22 50.983ZM23.42 59.018a27.965 27.965 0 0 1-.856-3.213s10.295.824 17.42.824c7.748 0 14.732-.82 17.89-.82l19.903.002a27.827 27.827 0 0 1-.858 3.206h-19.14c-5.584 0-11.289-.836-18.417-.836-6.792 0-15.943.837-15.943.837ZM76.332 60.642a28.161 28.161 0 0 1-1.527 3.2l-49.26.004a28.358 28.358 0 0 1-1.542-3.206l52.329.002ZM73.836 65.468H26.515a28.27 28.27 0 0 0 2.422 3.207H71.41a28.53 28.53 0 0 0 2.426-3.207ZM65.985 73.503H34.382a28.333 28.333 0 0 1-3.922-3.207h39.423a28.175 28.175 0 0 1-3.898 3.207ZM63.265 75.118a28.056 28.056 0 0 1-13.096 3.221c-4.715 0-9.16-1.166-13.065-3.214l26.161-.007Z" />
  </symbol>
  <symbol id="UPS">
    <path fill="#351C15" d="M100 0H0v100h100V0Z"/><path fill="#F2BF41" d="M38.666 57.72a3.495 3.495 0 0 1-1.981.517c-1.916 0-2.209-1.748-2.209-2.913V42.047H30.32V55.13c0 4.404 2.079 6.638 6.236 6.638a10.87 10.87 0 0 0 6.3-1.684V42.048h-4.157V57.72h-.032Z"/><path fill="#F2BF41" d="M49.968 23.334c-9.256 0-17.31 1.78-23.968 5.31V56.78c0 5.926 2.24 10.88 6.463 14.312 3.864 3.14 16.14 8.515 17.537 9.13 1.397-.615 13.672-5.99 17.537-9.13C71.76 67.66 74 62.706 74 56.78V28.644c-6.723-3.53-14.777-5.31-24.032-5.31ZM71.758 56.78c0 5.278-1.916 9.584-5.65 12.628-3.313 2.72-13.348 7.188-16.141 8.418-2.826-1.23-12.861-5.795-16.141-8.418-3.702-3.011-5.651-7.382-5.651-12.628V40.688c10.295-9.422 22.766-11.915 34.392-11.915 3.118 0 6.203.194 9.159.453V56.78h.032Z"/><path fill="#F2BF41" d="M50.585 41.627a10.1 10.1 0 0 0-5.619 1.49v27.1h4.157v-8.774c.617.162 1.234.26 1.884.227 4.644 0 7.275-4.177 7.275-10.232s-2.696-9.81-7.697-9.81Zm-.098 16.675c-.455 0-.91-.097-1.364-.259v-12.79a3.838 3.838 0 0 1 1.494-.29c2.436 0 3.41 1.942 3.41 6.572.033 4.566-1.137 6.767-3.54 6.767ZM59.256 47.034c0 2.202.617 3.853 4.06 5.893 1.85 1.069 2.565 1.781 2.597 3.076.033 1.457-.974 2.331-2.5 2.331-1.494-.097-2.89-.712-3.995-1.683v3.82c1.397.842 2.955 1.263 4.58 1.296 4.124 0 5.975-2.915 6.04-5.57.065-2.428-.585-4.274-4.092-6.313-1.56-.907-2.793-1.522-2.728-3.011.032-1.49 1.266-2.008 2.468-1.976 1.429.065 2.76.68 3.735 1.716v-3.626c-1.332-.971-2.956-1.425-4.58-1.36-3.02-.032-5.52 2.396-5.585 5.407Z"/>
  </symbol>
  <symbol id="WMT">
    <path fill="#1B74CE" d="M100 0H0v100h100V0Z"/><g fill="#FFB818" clip-path="url(#a)"><path d="M50.03 40.132c1.395 0 2.553-.722 2.723-1.684l1.396-15.816c0-1.582-1.804-2.854-4.085-2.854-2.281 0-4.086 1.272-4.086 2.854l1.396 15.815c.102.963 1.26 1.685 2.656 1.685ZM41.553 45.083c.714-1.237.646-2.613-.103-3.197L28.616 32.74c-1.328-.79-3.337.172-4.494 2.166-1.158 1.994-.953 4.23.408 4.986l14.23 6.704c.886.344 2.112-.31 2.793-1.513ZM58.507 45.049c.715 1.238 1.906 1.857 2.791 1.513l14.23-6.705c1.329-.79 1.533-2.991.41-4.985-1.158-1.994-3.167-2.923-4.495-2.166l-12.868 9.111c-.715.653-.783 2.029-.068 3.232ZM50.03 59.868c1.395 0 2.553.722 2.723 1.685l1.396 15.816c0 1.581-1.804 2.853-4.085 2.853-2.281 0-4.086-1.272-4.086-2.853l1.396-15.816c.102-.963 1.26-1.685 2.656-1.685ZM58.507 54.951c.715-1.238 1.906-1.857 2.791-1.513l14.23 6.705c1.329.79 1.533 3.026.41 5.02-1.158 1.994-3.167 2.922-4.495 2.166l-12.868-9.111c-.715-.688-.783-2.064-.068-3.267ZM41.553 54.951c.714 1.238.646 2.613-.103 3.232l-12.868 9.111c-1.328.791-3.337-.171-4.494-2.166-1.158-1.994-.954-4.229.408-4.985l14.23-6.705c.92-.378 2.146.275 2.827 1.513Z"/></g><defs><clipPath id="a"><path fill="#fff" d="M23.333 19.778h53.333v60.444H23.333z"/></clipPath></defs>
  </symbol>
  <symbol id="AMD">
    <path fill="#fff" d="M0 0h100v100H0z"/><path d="M100 0H0v100h100V0Z" fill="#28333E"/><path d="M61.83 38.17H38.591L24.437 24H76v51.579l-14.17-14.17V38.17ZM38.576 61.424V41.01L24 55.587v20.428h20.413l14.576-14.591H38.576Z" fill="#fff"/>
  </symbol>
  <symbol id="ASML">
    <path d="M1e2.0H0V1e2H1e2V0z" fill="#0f238c"/><path d="M60.8086 58.0632l2.17-10.168L63.8053 58.0632h4.681l-2.17-16.151H61.3046l-2.3353 9.6823-2.3353-9.6823H51.6223l-2.17 16.151h4.681L54.9703 47.8952l2.17 10.168h3.6683v0zm9.858-16.1407V58.0632H81V54.6739H75.0273V41.9225H70.6666zm-46.6343.0L19 58.0632h5.0323L24.704 55.1595h4.3606L29.7363 58.0632h5.0323l-5.0323-16.151h-5.704V41.9225v0zm2.852 3.5547 1.5087 6.6237H25.3756C25.3756 52.0905 26.8843 45.4772 26.8843 45.4772zM46.435 46.4795c-4.1747-3.5546-10.695-2.108-10.757 1.147C34.7273 41.5815 42.2293 40.3105 46.435 42.2222 46.5073 43.1935 46.5796 44.2372 46.435 46.4795zm-3.4617 1.9324C44.699 49.0629 47.7783 49.8999 47.7783 53.3615c0 2.1287-2.108 4.1334-4.5467 4.867C40.2143 59.1379 37.197 58.2389 35.3473 57.4639V53.5372C36.9076 54.6222 38.282 55.2009 39.987 55.2319 41.01 55.2525 42.5703 54.7565 42.5703 53.3719c0-1.18839999999999-1.1263-1.55-1.7773-1.9014C37.073 49.4865 38.1993 45.5082 41.5576 45.1775 40.5863 45.4979 40.3796 46.0145 40.3796 46.4899 40.39 47.6472 41.9193 48.0089 42.9733 48.4119z" fill="#fff"/>
  </symbol>
  <symbol id="MRNA">
    <g clip-path="url(#clip0_1_1541)"><path d="M1e2.0H0V1e2H1e2V0z" fill="#df1736"/></g><path d="M77.3792 56.2312H76.4746C76.2808 56.2312 76.1516 56.3927 76.1516 56.6835 76.1516 56.9742 76.2485 57.1035 76.4746 57.1035H79.899C80.1252 57.1035 80.2221 56.9419 80.2221 56.6835 80.2221 56.3927 80.1252 56.2312 79.899 56.2312H77.3792z" fill="#59a8db"/><path d="M72.1456 56.2312H71.241C71.0472 56.2312 70.9179 56.3927 70.9179 56.6835 70.9179 56.9742 71.0472 57.1035 71.241 57.1035H74.6655C74.8916 57.1035 74.9885 56.9419 74.9885 56.6835 74.9885 56.3927 74.8916 56.2312 74.6655 56.2312H72.1456z" fill="#65b0dd"/><path d="M67.2028 56.2312H66.2982C66.0721 56.2312 65.9752 56.3927 65.9752 56.6835 65.9752 56.9742 66.0721 57.1035 66.2982 57.1035H69.7226C69.9488 57.1035 70.0457 56.9419 70.0457 56.6835 70.0457 56.3927 69.9488 56.2312 69.7226 56.2312H67.2028z" fill="#6db5e1"/><path d="M61.9692 56.2312H61.097C60.8708 56.2312 60.7739 56.3927 60.7739 56.6835 60.7739 56.9742 60.8708 57.1035 61.097 57.1035h3.4244C64.7475 57.1035 64.8444 56.9419 64.8444 56.6835 64.8444 56.3927 64.7475 56.2312 64.5214 56.2312H61.9692z" fill="#76bae3"/><path d="M56.7356 56.2312H55.8633C55.6372 56.2312 55.5403 56.3927 55.5403 56.6835 55.5403 56.9742 55.6372 57.1035 55.8633 57.1035H59.2878C59.5139 57.1035 59.6108 56.9419 59.6108 56.6835 59.6108 56.3927 59.5139 56.2312 59.2878 56.2312H56.7356z" fill="#7ebfe6"/><path d="M51.8252 56.2312H50.9529C50.7268 56.2312 50.6299 56.3927 50.6299 56.6835 50.6299 56.9742 50.7268 57.1035 50.9529 57.1035h3.4244C54.6035 57.1035 54.7004 56.9419 54.7004 56.6835 54.7004 56.3927 54.6035 56.2312 54.3773 56.2312H51.8252z" fill="#87c4e6"/><path d="M46.5916 56.2312H45.7193C45.4932 56.2312 45.3962 56.3927 45.3962 56.6835 45.3962 56.9742 45.4932 57.1035 45.7193 57.1035H49.1437C49.3699 57.1035 49.4668 56.9419 49.4668 56.6835 49.4668 56.3927 49.3699 56.2312 49.1437 56.2312H46.5916z" fill="#91c9e9"/><path d="M41.3582 56.2312H40.4859C40.2598 56.2312 40.1628 56.3927 40.1628 56.6835 40.1628 56.9742 40.2598 57.1035 40.4859 57.1035H43.878C44.0719 57.1035 44.2011 56.9419 44.2011 56.6835 44.2011 56.3927 44.1042 56.2312 43.878 56.2312H41.3582z" fill="#9bceec"/><path d="M36.4154 56.2312H35.5108C35.2847 56.2312 35.1877 56.3927 35.1877 56.6835 35.1877 56.9742 35.2847 57.1035 35.5108 57.1035h3.4244C39.1614 57.1035 39.2583 56.9419 39.2583 56.6835 39.2583 56.3927 39.1614 56.2312 38.9352 56.2312H36.4154z" fill="#a6d4ec"/><path d="M31.1818 56.2312H30.3095C30.0834 56.2312 29.9865 56.3927 29.9865 56.6835 29.9865 56.9742 30.0834 57.1035 30.3095 57.1035h3.4244C33.9601 57.1035 34.057 56.9419 34.057 56.6835 34.057 56.3927 33.9601 56.2312 33.7339 56.2312H31.1818z" fill="#b0daef"/><path d="M25.9482 56.2312H25.0759C24.8498 56.2312 24.7529 56.3927 24.7529 56.6835 24.7529 56.9742 24.8498 57.1035 25.0759 57.1035h3.4245C28.7265 57.1035 28.8234 56.9419 28.8234 56.6835 28.8234 56.3927 28.7265 56.2312 28.5004 56.2312H25.9482z" fill="#badff2"/><path d="M21.0054 56.2312H20.1008C19.8747 56.2312 19.7777 56.3927 19.7777 56.6835 19.7777 56.9742 19.8747 57.1035 20.1008 57.1035h3.4244C23.7514 57.1035 23.8483 56.9419 23.8483 56.6835 23.8483 56.3927 23.7514 56.2312 23.5252 56.2312H21.0054z" fill="#c5e4f2"/><path d="M19.8101 45.6671H20.747v1.2923C21.07 46.4748 21.3931 46.1517 21.7484 45.9256 22.2007 45.6348 22.7176 45.5056 23.2345 45.5056 23.5899 45.5056 23.9129 45.5702 24.236 45.6994 24.5591 45.8287 24.8175 46.0225 25.0113 46.281 25.2052 46.5071 25.3667 46.8302 25.5282 47.2824 25.8513 46.7009 26.239 46.281 26.6913 45.9579 27.1435 45.6671 27.6604 45.5056 28.1773 45.5056S29.1142 45.6348 29.5019 45.8933C29.8895 46.1517 30.148 46.5071 30.3418 46.9917 30.5357 47.444 30.6003 48.1547 30.6003 49.0593v4.0382H29.6634V49.027C29.6634 48.2516 29.5988 47.7024 29.5019 47.4117 29.3726 47.1209 29.2111 46.8625 28.9204 46.7009 28.6619 46.5071 28.3389 46.4425 27.9835 46.4425 27.5312 46.4425 27.1435 46.5717 26.7559 46.8625 26.4005 47.1209 26.1097 47.5086 25.9482 47.9286 25.7867 48.3808 25.6898 49.1239 25.6898 50.19v2.8752H24.7529V49.2854C24.7529 48.3808 24.7206 47.7993 24.5914 47.4763 24.4621 47.1532 24.3006 46.8948 24.0099 46.7009 23.7514 46.5071 23.4284 46.4102 23.0407 46.4102 22.6207 46.4102 22.233 46.5394 21.8454 46.7979 21.49 47.0563 21.1992 47.4117 21.0377 47.8639 20.8762 48.3162 20.7793 48.9947 20.7793 49.9315v3.1337H19.8424L19.8101 45.6671z" fill="#fff"/><path d="M36.0599 46.4425C35.2845 46.4425 34.6061 46.7332 34.0569 47.3147 33.5077 47.8963 33.217 48.607 33.217 49.4469 33.217 49.9961 33.3462 50.4807 33.6046 50.9653 33.8631 51.4176 34.1861 51.8053 34.6384 52.0314 35.0584 52.2899 35.543 52.4191 36.0599 52.4191S37.0291 52.2899 37.4813 52.0314C37.9336 51.773 38.2567 51.4176 38.5151 50.9653 38.7736 50.4807 38.9028 49.9961 38.9028 49.4469c0-.8399-.290700000000001-1.5506-.8399-2.1322C37.5137 46.7332 36.8352 46.4425 36.0599 46.4425zM36.0599 45.5056c1.0984.0 2.0353.420000000000002 2.7783 1.2599C39.5166 47.5409 39.8397 48.4131 39.8397 49.4792 39.8397 50.513 39.4843 51.4176 38.7736 52.1929 38.0628 52.9683 37.1583 53.356 36.0599 53.356S34.0569 52.9683 33.3462 52.1929C32.6355 51.4176 32.2801 50.513 32.2801 49.4792c0-1.0337.323-1.9383 1.0015-2.6813C34.0246 45.9256 34.9615 45.5056 36.0599 45.5056z" fill="#fff"/><path d="M45.138 46.4426C44.6211 46.4426 44.1365 46.5718 43.6842 46.8302 43.232 47.0887 42.9089 47.4441 42.6505 47.9286 42.392 48.4132 42.2628 48.8978 42.2628 49.4147 42.2628 49.9316 42.392 50.4485 42.6505 50.9008 42.9089 51.3854 43.2643 51.7407 43.7166 52.0315 44.1688 52.2899 44.6211 52.4192 45.138 52.4192S46.1395 52.2899 46.5918 52.0315C47.0441 51.773 47.3994 51.4177 47.6579 50.9654 47.9163 50.5131 48.0132 49.9962 48.0132 49.447 48.0132 48.5748 47.7548 47.864 47.1733 47.3148 46.6241 46.7333 45.9457 46.4426 45.138 46.4426zm3.7152-3.5537V53.1622H47.9486V51.87C47.561 52.3546 47.1087 52.7099 46.6241 52.9684c-.4846.226099999999995-1.0338.3553-1.6153.3553C43.975 53.3237 43.1027 52.9361 42.392 52.1607 41.6813 51.4177 41.2936 50.4808 41.2936 49.3824 41.2936 48.3163 41.649 47.4117 42.392 46.6364 43.135 45.8934 44.0073 45.5057 45.0411 45.5057 45.6226 45.5057 46.1718 45.6349 46.6564 45.8934 47.141 46.1518 47.561 46.5395 47.9163 47.0564V42.8889H48.8532z" fill="#fff"/><path d="M57.1233 48.6393C56.9941 48.1224 56.8002 47.7347 56.5741 47.4117 56.3479 47.1209 56.0249 46.8625 55.6049 46.6686 55.2172 46.4748 54.7973 46.3779 54.3773 46.3779 53.6666 46.3779 53.0527 46.604 52.5358 47.0886 52.1482 47.444 51.8897 47.9286 51.6636 48.6393h5.4597zm0 2.0353L57.8986 51.0945C57.6402 51.6114 57.3494 52.0314 56.9941 52.3545 56.6387 52.6775 56.251 52.9037 55.8311 53.0975 55.4111 53.259 54.9265 53.356 54.3773 53.356 53.182 53.356 52.2451 52.9683 51.5667 52.1606 50.8882 51.353 50.5652 50.4484 50.5652 49.4469 50.5652 48.4778 50.8559 47.6378 51.4051 46.9271 52.1159 45.9902 53.1174 45.5056 54.3127 45.5056c1.2276.0 2.2291.4846 2.9721 1.4538C57.834 47.6378 58.0925 48.4778 58.0925 49.5115H51.5021C51.5344 50.3838 51.7928 51.0945 52.3097 51.6437 52.8266 52.1929 53.4727 52.4837 54.2481 52.4837 54.6357 52.4837 54.9911 52.4191 55.3465 52.2899 55.7018 52.1606 55.9926 51.9668 56.251 51.773 56.5741 51.5145 56.8325 51.1592 57.1233 50.6746z" fill="#fff"/><path d="M59.611 45.6672H60.5802v1.0661C60.8709 46.3133 61.194 45.9903 61.517 45.7964 61.8401 45.6026 62.1955 45.4734 62.5185 45.4734 62.777 45.4734 63.0677 45.5703 63.3908 45.7318L62.8739 46.5395C62.6801 46.4426 62.4862 46.4103 62.357 46.4103 62.0339 46.4103 61.7109 46.5395 61.4201 46.7979 61.1294 47.0564 60.9032 47.4764 60.7417 47.9933 60.6125 48.4132 60.5479 49.2532 60.5479 50.5454V53.033H59.5787V45.6672H59.611z" fill="#fff"/><path d="M64.5536 45.6672H65.4582v1.3246C65.8135 46.4749 66.2335 46.1195 66.6535 45.8611 67.0735 45.6026 67.5581 45.4734 68.0749 45.4734 68.5918 45.4734 69.0764 45.6026 69.4641 45.8934 69.8518 46.1841 70.1748 46.5718 70.3687 47.0241 70.5625 47.5087 70.6594 48.2194 70.6594 49.2532v3.7797H69.7549V49.5116C69.7549 48.6717 69.7226 48.0902 69.6579 47.7994 69.561 47.3148 69.3672 46.9595 69.0441 46.701 68.7534 46.4749 68.3657 46.3456 67.8811 46.3456 67.3319 46.3456 66.8473 46.5395 66.4273 46.9272 66.0074 47.3148 65.7166 47.7671 65.5874 48.3486 65.4905 48.704 65.4582 49.3824 65.4582 50.3516v2.7137H64.5536V45.6672z" fill="#fff"/><path d="M76.2161 46.4102C75.6992 46.4102 75.2146 46.5394 74.7623 46.7979 74.31 47.0563 73.9869 47.444 73.7285 47.9286 73.47 48.4131 73.3408 48.8977 73.3408 49.4146 73.3408 49.9638 73.47 50.4484 73.7285 50.933 73.9869 51.4176 74.3423 51.773 74.7946 52.0637 75.2469 52.3222 75.6992 52.4514 76.2161 52.4514 76.733 52.4514 77.2175 52.3222 77.6698 52.0637 78.1221 51.8053 78.4775 51.4499 78.7359 50.9976 78.9944 50.5453 79.0913 50.0284 79.0913 49.4792 79.0913 48.607 78.8328 47.8963 78.2836 47.3147 77.7021 46.7009 77.0237 46.4102 76.2161 46.4102zM79.9313 45.6994V53.1621H79.0267V51.8699C78.639 52.3545 78.1867 52.7421 77.7021 52.9683 77.2175 53.1944 76.6683 53.3237 76.0868 53.3237 75.053 53.3237 74.1808 52.936 73.4701 52.1606 72.7593 51.3853 72.3716 50.4807 72.3716 49.3823c0-1.0661.355400000000003-2.0029 1.0985-2.746C74.2131 45.861 75.0854 45.5056 76.1191 45.5056 76.7007 45.5056 77.2499 45.6348 77.7344 45.8933 78.219 46.1517 78.639 46.5394 78.9944 47.0563V45.6671H79.9313V45.6994z" fill="#fff"/><defs><clipPath id="clip0_1_1541"><rect width="100" height="100" fill="#fff"/></clipPath></defs>
   </symbol>
  <symbol id="NVDA">
    <path d="M1e2.0H0V1e2H1e2V0z" fill="#76b936"/><path d="M42.3158 41.9281V38.3272C42.6695 38.295 43.0231 38.295 43.3768 38.295c9.8704-.3215 16.365 8.5201 16.365 8.5201s-6.9768 9.7097-14.5002 9.7097C44.2449 56.5248 43.2482 56.3641 42.3158 56.0426V45.079C46.174 45.5612 46.9456 47.2331 49.2283 51.0913L54.3725 46.783s-3.7617-4.9192-10.0955-4.9192C43.634 41.8317 42.991 41.8638 42.3158 41.9281zm0-11.9281v5.4014C42.6695 35.3693 43.0231 35.3693 43.3768 35.3371 57.1054 34.8548 66.0756 46.5901 66.0756 46.5901S55.7872 59.0969 45.0808 59.0969C44.1484 59.0969 43.2482 59.0005 42.3158 58.8397v3.3438C43.0874 62.2799 43.8591 62.3442 44.5985 62.3442c9.9669.0 17.201-5.112 24.1778-11.1243C69.9338 52.1523 74.6922 54.4028 75.6567 55.3674c-6.6232 5.5622-22.1201 10.0312-30.8974 10.0312C43.9234 65.3986 43.1196 65.3664 42.3158 65.27V69.9641H80.2222V30H42.3158zm0 26.0104v2.8615c-9.2274-1.6397-11.7674-11.253-11.7674-11.253S34.9853 42.7319 42.3158 41.9281v3.1187H42.2836C38.4255 44.5645 35.4033 48.1976 35.4033 48.1976s1.704 6.0766 6.9125 7.8128zm-16.365-8.7773s5.4657-8.07 16.3972-8.9059V35.4014C30.2269 36.366 19.7777 46.6222 19.7777 46.6222S25.6936 63.7589 42.348 65.3343V62.2156C30.0983 60.6723 25.9508 47.2331 25.9508 47.2331z" fill="#fff"/>
  </symbol>
  <symbol id="empty">
   <path d="M49.9995 100.997C49.6679 100.995 49.3383 100.991 49.0107 100.987L49.0039 101.487C48.3385 101.478 47.681 101.464 47.0313 101.446L47.0453 100.946C46.7122 100.937 46.3813 100.926 46.0524 100.915L46.0345 101.414C45.3702 101.391 44.7143 101.362 44.0667 101.328L44.0928 100.829C43.7589 100.811 43.4272 100.792 43.0977 100.772L43.0671 101.271C42.4035 101.23 41.7488 101.184 41.1029 101.132L41.1429 100.634C40.8089 100.607 40.4773 100.579 40.148 100.549L40.1029 101.047C39.4398 100.987 38.7862 100.921 38.142 100.848L38.1978 100.352C37.8647 100.314 37.5342 100.275 37.2062 100.234L37.1445 100.73C36.4822 100.648 35.83 100.559 35.1879 100.462L35.262 99.9679C34.931 99.9183 34.6028 99.8668 34.2773 99.8135L34.1965 100.307C33.5358 100.199 32.886 100.083 32.2471 99.9589L32.3422 99.468C32.0148 99.4046 31.6903 99.3391 31.3688 99.2716L31.266 99.7609C30.6086 99.6228 29.9631 99.476 29.3292 99.3204L29.4484 98.8348C29.1263 98.7557 28.8072 98.6744 28.4913 98.5907L28.3633 99.0741C27.712 98.9016 27.0734 98.7194 26.4474 98.5273L26.5941 98.0493C26.2792 97.9526 25.9676 97.8535 25.6592 97.7518L25.5026 98.2266C24.8612 98.015 24.2334 97.7924 23.6191 97.5587L23.7969 97.0914C23.4892 96.9743 23.185 96.8544 22.8843 96.7317L22.6954 97.1946C22.0712 96.9398 21.4616 96.6729 20.8663 96.3936L21.0787 95.9409C20.7775 95.7996 20.48 95.655 20.1864 95.5072L19.9616 95.9539C19.3597 95.651 18.7732 95.3347 18.2018 95.0047L18.4519 94.5717C18.1659 94.4065 17.8838 94.2379 17.6056 94.0658L17.3425 94.491C16.7698 94.1366 16.2132 93.7676 15.6724 93.3838L15.9618 92.976C15.6934 92.7856 15.4291 92.5914 15.1687 92.3935L14.8661 92.7915C14.3315 92.3851 13.8132 91.9631 13.311 91.5253L13.6396 91.1485C13.3912 90.9319 13.147 90.7115 12.9067 90.4872L12.5654 90.8526C12.0765 90.3961 11.6039 89.9235 11.1474 89.4346L11.5129 89.0933C11.2885 88.8531 11.0681 88.6088 10.8516 88.3604L10.4747 88.689C10.0369 88.1868 9.61491 87.6685 9.20849 87.1339L9.60655 86.8313C9.40864 86.5709 9.21446 86.3066 9.02398 86.0382L8.61625 86.3276C8.23237 85.7868 7.86339 85.2302 7.50907 84.6575L7.93426 84.3944C7.76214 84.1162 7.59349 83.8341 7.42829 83.5481L6.99532 83.7982C6.6653 83.2268 6.34899 82.6403 6.04613 82.0384L6.49278 81.8136C6.34501 81.52 6.20046 81.2225 6.05909 80.9213L5.60645 81.1337C5.3271 80.5384 5.06017 79.9288 4.80543 79.3046L5.26835 79.1157C5.14562 78.815 5.02572 78.5108 4.90862 78.2031L4.44131 78.3809C4.20757 77.7666 3.98501 77.1388 3.77342 76.4974L4.24826 76.3408C4.14655 76.0324 4.04738 75.7208 3.95073 75.4059L3.47273 75.5526C3.28059 74.9266 3.09838 74.288 2.92593 73.6367L3.40928 73.5087C3.32563 73.1928 3.24428 72.8737 3.1652 72.5516L2.67962 72.6708C2.52403 72.0369 2.37726 71.3914 2.23914 70.734L2.72846 70.6312C2.66089 70.3096 2.5954 69.9852 2.53197 69.6578L2.0411 69.7528C1.91732 69.114 1.80137 68.4642 1.69311 67.8035L2.18653 67.7227C2.13319 67.3972 2.08173 67.0689 2.03212 66.738L1.53764 66.8121C1.4414 66.17 1.35213 65.5178 1.26971 64.8555L1.76589 64.7937C1.72508 64.4658 1.68595 64.1352 1.6485 63.8021L1.15163 63.858C1.0792 63.2138 1.013 62.5602 0.952942 61.897L1.4509 61.8519C1.42109 61.5227 1.39279 61.1911 1.36599 60.8571L0.867593 60.8971C0.815777 60.2512 0.769576 59.5964 0.728904 58.9328L1.22797 58.9023C1.20777 58.5728 1.18895 58.2411 1.17148 57.9072L0.672163 57.9333C0.638283 57.2857 0.60949 56.6297 0.585708 55.9655L1.08539 55.9476C1.07361 55.6187 1.06307 55.2877 1.05375 54.9547L0.553948 54.9687C0.535769 54.319 0.52223 53.6615 0.513262 52.9961L1.01322 52.9893C1.0088 52.6617 1.0055 52.3321 1.0033 52.0005L0.503307 52.0038C0.5011 51.6712 0.5 51.3366 0.5 51C0.5 50.6653 0.501174 50.3325 0.503531 50.0014L1.00352 50.005C1.00587 49.6752 1.0094 49.3472 1.01411 49.021L0.514162 49.0138C0.52375 48.3506 0.538231 47.6949 0.557681 47.0465L1.05746 47.0615C1.06738 46.7307 1.0786 46.4019 1.09113 46.075L0.591498 46.0559C0.616898 45.3933 0.647653 44.7386 0.683848 44.0917L1.18307 44.1197C1.2016 43.7885 1.22156 43.4595 1.24296 43.1326L0.744027 43.0999C0.787372 42.4377 0.836611 41.784 0.891838 41.1386L1.39002 41.1812C1.41832 40.8505 1.44819 40.522 1.47966 40.1958L0.981971 40.1478C1.04578 39.4862 1.11611 38.8336 1.19307 38.1899L1.68953 38.2493C1.72891 37.92 1.77003 37.593 1.81289 37.2684L1.3172 37.203C1.40443 36.5426 1.4989 35.8918 1.60073 35.2505L2.09454 35.329C2.14644 35.0021 2.20026 34.6779 2.25602 34.3561L1.76336 34.2707C1.8774 33.6127 1.99951 32.9649 2.12983 32.3274L2.61969 32.4276C2.68572 32.1046 2.75385 31.7844 2.82412 31.4668L2.33593 31.3588C2.4806 30.7049 2.63429 30.0622 2.79715 29.4305L3.28132 29.5553C3.36318 29.2378 3.44736 28.9232 3.53389 28.6114L3.05209 28.4777C3.2316 27.8309 3.42116 27.196 3.62096 26.573L4.09708 26.7257C4.19699 26.4141 4.29948 26.1056 4.40454 25.8002L3.93173 25.6375C4.15006 25.0029 4.37953 24.381 4.62036 23.7717L5.08535 23.9555C5.20686 23.6481 5.33126 23.3441 5.45858 23.0433L4.99814 22.8484C5.25926 22.2317 5.53263 21.6284 5.81849 21.0386L6.26844 21.2566C6.41235 20.9597 6.55944 20.6662 6.70972 20.3763L6.26581 20.1462C6.57418 19.5513 6.89598 18.9706 7.23144 18.4041L7.66167 18.6588C7.82849 18.3771 7.99871 18.099 8.17235 17.8245L7.74979 17.5572C8.10783 16.9912 8.48034 16.44 8.86756 15.9036L9.27297 16.1962C9.46519 15.93 9.66107 15.6674 9.86063 15.4086L9.46466 15.1033C9.87219 14.5747 10.2949 14.0613 10.7331 13.563L11.1086 13.8931C11.3249 13.647 11.5451 13.4047 11.7691 13.1661L11.4046 12.8238C11.8599 12.3389 12.3309 11.869 12.8177 11.4142L13.159 11.7795C13.3981 11.5562 13.641 11.3366 13.8878 11.1205L13.5586 10.7443C14.0577 10.3075 14.5725 9.88551 15.1033 9.47817L15.4077 9.87481C15.6657 9.6768 15.9276 9.48228 16.1933 9.29124L15.9014 8.88527C16.4373 8.5 16.9885 8.12879 17.5552 7.77147L17.8219 8.19443C18.0981 8.02025 18.3782 7.84939 18.6621 7.68184L18.4079 7.25125C18.9737 6.91734 19.5542 6.5965 20.1495 6.2886L20.3792 6.73272C20.6691 6.58281 20.9626 6.43597 21.2598 6.29218L21.0421 5.84209C21.6332 5.55613 22.2383 5.28224 22.8577 5.02029L23.0525 5.48079C23.3496 5.35515 23.65 5.23226 23.9539 5.11211L23.77 4.64714C24.3787 4.40645 25.0006 4.17673 25.6358 3.95785L25.7987 4.43057C26.1052 4.32498 26.4148 4.22191 26.7277 4.12136L26.5748 3.64533C27.1957 3.44579 27.8289 3.25614 28.4747 3.07625L28.6089 3.55791C28.923 3.4704 29.2402 3.38521 29.5604 3.30232L29.4351 2.81827C30.0644 2.65539 30.7052 2.50139 31.3576 2.35618L31.4663 2.84423C31.7861 2.77304 32.1089 2.70396 32.4345 2.63698L32.3338 2.14723C32.9687 2.01666 33.6143 1.89408 34.2706 1.77941L34.3567 2.27195C34.6806 2.21536 35.0072 2.1607 35.3365 2.10796L35.2575 1.61425C35.896 1.512 36.5445 1.41696 37.203 1.32906L37.2691 1.82466C37.5956 1.78108 37.9247 1.73926 38.2562 1.69919L38.1962 1.2028C38.8373 1.12533 39.4876 1.05439 40.1473 0.989912L40.1959 1.48754C40.5237 1.4555 40.8539 1.42506 41.1865 1.39622L41.1433 0.898092C41.7863 0.842326 42.438 0.792503 43.0985 0.748571L43.1317 1.24747C43.4598 1.22565 43.7901 1.20528 44.1227 1.18637L44.0943 0.687175C44.7392 0.650497 45.3923 0.619263 46.0537 0.593425L46.0732 1.09304C46.4008 1.08025 46.7304 1.06878 47.0621 1.05864L47.0468 0.55887C47.6939 0.539079 48.3488 0.524306 49.0115 0.514509L49.0189 1.01445C49.3452 1.00963 49.6734 1.00602 50.0036 1.00361L50 0.503622C50.3314 0.501206 50.6647 0.5 51 0.5C51.3366 0.5 51.6712 0.5011 52.0038 0.503307L52.0005 1.0033C52.3321 1.0055 52.6617 1.0088 52.9893 1.01322L52.9961 0.513262C53.6615 0.52223 54.319 0.535769 54.9687 0.553948L54.9547 1.05375C55.2878 1.06307 55.6187 1.07361 55.9476 1.08539L55.9655 0.585709C56.6298 0.609491 57.2857 0.638284 57.9333 0.672163L57.9072 1.17148C58.2411 1.18895 58.5728 1.20778 58.9023 1.22797L58.9329 0.728905C59.5965 0.769577 60.2512 0.815778 60.8971 0.867594L60.8571 1.36599C61.1911 1.39279 61.5227 1.42109 61.852 1.4509L61.8971 0.952943C62.5602 1.013 63.2138 1.0792 63.858 1.15163L63.8022 1.6485C64.1353 1.68595 64.4658 1.72508 64.7938 1.76589L64.8555 1.26972C65.5178 1.35213 66.17 1.4414 66.8121 1.53764L66.738 2.03212C67.069 2.08173 67.3972 2.13319 67.7227 2.18653L67.8035 1.69311C68.4642 1.80137 69.114 1.91732 69.7529 2.0411L69.6578 2.53197C69.9852 2.5954 70.3097 2.66089 70.6312 2.72846L70.734 2.23914C71.3914 2.37726 72.0369 2.52403 72.6708 2.67962L72.5516 3.16521C72.8737 3.24428 73.1928 3.32563 73.5087 3.40928L73.6367 2.92593C74.288 3.09838 74.9266 3.28059 75.5526 3.47274L75.4059 3.95073C75.7208 4.04738 76.0324 4.14655 76.3408 4.24826L76.4974 3.77342C77.1389 3.98501 77.7666 4.20757 78.3809 4.44131L78.2031 4.90862C78.5108 5.02572 78.815 5.14562 79.1157 5.26836L79.3046 4.80543C79.9288 5.06017 80.5384 5.3271 81.1337 5.60645L80.9213 6.05909C81.2225 6.20046 81.52 6.34501 81.8136 6.49278L82.0384 6.04613C82.6403 6.34899 83.2268 6.6653 83.7982 6.99532L83.5481 7.42829C83.8341 7.59349 84.1162 7.76214 84.3944 7.93426L84.6575 7.50907C85.2302 7.86339 85.7868 8.23237 86.3276 8.61625L86.0382 9.02398C86.3066 9.21446 86.5709 9.40864 86.8313 9.60655L87.1339 9.20849C87.6685 9.61491 88.1868 10.0369 88.689 10.4747L88.3604 10.8516C88.6088 11.0681 88.8531 11.2885 89.0933 11.5129L89.4346 11.1474C89.9235 11.6039 90.3961 12.0765 90.8526 12.5654L90.4872 12.9067C90.7115 13.147 90.9319 13.3912 91.1485 13.6396L91.5253 13.311C91.9631 13.8132 92.3851 14.3315 92.7915 14.8661L92.3935 15.1687C92.5914 15.4291 92.7856 15.6934 92.976 15.9618L93.3838 15.6724C93.7676 16.2132 94.1366 16.7698 94.491 17.3425L94.0658 17.6056C94.2379 17.8838 94.4065 18.1659 94.5717 18.4519L95.0047 18.2018C95.3347 18.7732 95.651 19.3597 95.9539 19.9616L95.5072 20.1864C95.655 20.48 95.7996 20.7775 95.9409 21.0787L96.3936 20.8663C96.6729 21.4616 96.9398 22.0712 97.1946 22.6954L96.7317 22.8843C96.8544 23.185 96.9743 23.4892 97.0914 23.7969L97.5587 23.6191C97.7924 24.2334 98.015 24.8612 98.2266 25.5026L97.7518 25.6592C97.8535 25.9676 97.9526 26.2792 98.0493 26.5941L98.5273 26.4474C98.7194 27.0734 98.9016 27.712 99.0741 28.3633L98.5907 28.4913C98.6744 28.8072 98.7557 29.1263 98.8348 29.4484L99.3204 29.3292C99.476 29.9631 99.6228 30.6086 99.7609 31.266L99.2716 31.3688C99.3391 31.6903 99.4046 32.0148 99.468 32.3422L99.9589 32.2471C100.083 32.886 100.199 33.5358 100.307 34.1965L99.8135 34.2773C99.8668 34.6028 99.9183 34.9311 99.9679 35.262L100.462 35.1879C100.559 35.83 100.648 36.4822 100.73 37.1445L100.234 37.2063C100.275 37.5342 100.314 37.8648 100.352 38.1979L100.848 38.142C100.921 38.7862 100.987 39.4398 101.047 40.103L100.549 40.1481C100.579 40.4773 100.607 40.8089 100.634 41.1429L101.132 41.1029C101.184 41.7488 101.23 42.4036 101.271 43.0672L100.772 43.0977C100.792 43.4272 100.811 43.7589 100.829 44.0928L101.328 44.0667C101.362 44.7143 101.391 45.3703 101.414 46.0345L100.915 46.0524C100.926 46.3813 100.937 46.7123 100.946 47.0453L101.446 47.0313C101.464 47.681 101.478 48.3385 101.487 49.0039L100.987 49.0107C100.991 49.3383 100.995 49.6679 100.997 49.9995L101.497 49.9962C101.499 50.3288 101.5 50.6634 101.5 51C101.5 51.3366 101.499 51.6712 101.497 52.0039L100.997 52.0005C100.995 52.3321 100.991 52.6617 100.987 52.9893L101.487 52.9961C101.478 53.6615 101.464 54.319 101.446 54.9687L100.946 54.9547C100.937 55.2878 100.926 55.6187 100.915 55.9476L101.414 55.9655C101.391 56.6298 101.362 57.2857 101.328 57.9333L100.829 57.9072C100.811 58.2411 100.792 58.5728 100.772 58.9023L101.271 58.9329C101.23 59.5965 101.184 60.2512 101.132 60.8971L100.634 60.8572C100.607 61.1912 100.579 61.5228 100.549 61.852L101.047 61.8971C100.987 62.5602 100.921 63.2138 100.848 63.8581L100.352 63.8022C100.314 64.1353 100.275 64.4658 100.234 64.7938L100.73 64.8555C100.648 65.5179 100.559 66.17 100.462 66.8121L99.9679 66.738C99.9183 67.069 99.8669 67.3972 99.8135 67.7227L100.307 67.8036C100.199 68.4643 100.083 69.114 99.959 69.7529L99.4681 69.6578C99.4047 69.9852 99.3392 70.3097 99.2716 70.6313L99.7609 70.7341C99.6228 71.3914 99.4761 72.037 99.3205 72.6709L98.8349 72.5517C98.7558 72.8738 98.6745 73.1929 98.5908 73.5088L99.0742 73.6368C98.9017 74.2881 98.7195 74.9267 98.5274 75.5527L98.0494 75.406C97.9527 75.7209 97.8536 76.0325 97.7519 76.3409L98.2267 76.4975C98.0151 77.1389 97.7926 77.7667 97.5588 78.381L97.0915 78.2032C96.9744 78.5109 96.8545 78.8151 96.7318 79.1158L97.1947 79.3047C96.94 79.9289 96.673 80.5385 96.3937 81.1338L95.9411 80.9214C95.7997 81.2227 95.6551 81.5201 95.5074 81.8138L95.954 82.0385C95.6512 82.6404 95.3349 83.227 95.0048 83.7983L94.5719 83.5483C94.4067 83.8343 94.238 84.1164 94.0659 84.3946L94.4911 84.6576C94.1368 85.2303 93.7678 85.787 93.3839 86.3278L92.9762 86.0384C92.7857 86.3067 92.5915 86.5711 92.3936 86.8314L92.7917 87.134C92.3853 87.6687 91.9633 88.187 91.5255 88.6892L91.1486 88.3606C90.9321 88.6089 90.7117 88.8532 90.4873 89.0935L90.8528 89.4347C90.3962 89.9237 89.9236 90.3962 89.4347 90.8528L89.0935 90.4873C88.8532 90.7117 88.6089 90.9321 88.3606 91.1486L88.6892 91.5255C88.187 91.9633 87.6687 92.3853 87.134 92.7917L86.8314 92.3936C86.5711 92.5915 86.3067 92.7857 86.0384 92.9762L86.3278 93.3839C85.787 93.7678 85.2303 94.1368 84.6576 94.4911L84.3945 94.0659C84.1164 94.238 83.8343 94.4067 83.5482 94.5719L83.7983 95.0048C83.2269 95.3349 82.6404 95.6512 82.0385 95.954L81.8138 95.5074C81.5201 95.6551 81.2226 95.7997 80.9214 95.9411L81.1338 96.3937C80.5385 96.673 79.9289 96.94 79.3047 97.1947L79.1158 96.7318C78.8151 96.8545 78.5109 96.9744 78.2032 97.0915L78.381 97.5588C77.7667 97.7926 77.1389 98.0151 76.4975 98.2267L76.3409 97.7519C76.0325 97.8536 75.7209 97.9527 75.406 98.0494L75.5527 98.5274C74.9267 98.7195 74.2881 98.9017 73.6367 99.0742L73.5088 98.5908C73.1928 98.6745 72.8738 98.7558 72.5517 98.8349L72.6709 99.3205C72.037 99.4761 71.3914 99.6228 70.7341 99.7609L70.6313 99.2716C70.3097 99.3392 69.9852 99.4047 69.6578 99.4681L69.7529 99.959C69.114 100.083 68.4643 100.199 67.8036 100.307L67.7227 99.8135C67.3972 99.8669 67.069 99.9183 66.738 99.9679L66.8121 100.462C66.17 100.559 65.5179 100.648 64.8555 100.73L64.7938 100.234C64.4658 100.275 64.1353 100.314 63.8022 100.352L63.858 100.848C63.2138 100.921 62.5602 100.987 61.8971 101.047L61.852 100.549C61.5228 100.579 61.1911 100.607 60.8571 100.634L60.8971 101.132C60.2512 101.184 59.5965 101.23 58.9329 101.271L58.9023 100.772C58.5728 100.792 58.2411 100.811 57.9072 100.829L57.9333 101.328C57.2857 101.362 56.6298 101.391 55.9655 101.414L55.9476 100.915C55.6187 100.926 55.2878 100.937 54.9547 100.946L54.9687 101.446C54.319 101.464 53.6615 101.478 52.9961 101.487L52.9893 100.987C52.6617 100.991 52.3321 100.995 52.0005 100.997L52.0038 101.497C51.6712 101.499 51.3366 101.5 51 101.5C50.6634 101.5 50.3288 101.499 49.9962 101.497L49.9995 100.997Z" fill="#FFF9BF" stroke="#FECC3D" stroke-dasharray="2 1"/><path d="M52.5 19.5C49.6584 19.5 46.9531 19.9326 44.3958 20.8096L44.384 20.8136C41.8878 21.6882 39.6631 22.9284 37.7287 24.5429L37.7082 24.5603C35.8081 26.1929 34.3003 28.1644 33.1898 30.4577C32.0533 32.8047 31.5 35.3835 31.5 38.1609C31.5 39.204 32.3395 40.0496 33.375 40.0496H42.9C43.9355 40.0496 44.775 39.204 44.775 38.1609C44.775 37.2233 44.9666 36.4074 45.3271 35.6813L45.3429 35.6487C45.737 34.815 46.2602 34.1156 46.9155 33.5331C47.5841 32.9389 48.3873 32.4468 49.3458 32.0675C50.3284 31.698 51.3511 31.5125 52.425 31.5125C53.5296 31.5125 54.5451 31.683 55.484 32.012C56.4465 32.3492 57.2466 32.7994 57.908 33.3482C57.9255 33.3626 57.9431 33.3767 57.961 33.3905C58.5942 33.8783 59.092 34.4721 59.4658 35.1875L59.486 35.2251C59.8206 35.8319 60 36.5201 60 37.3298C60 38.6607 59.4853 39.9016 58.2468 41.1092C56.892 42.4285 55.0828 43.7474 52.7808 45.0518L52.7669 45.0598C49.5563 46.9154 47.088 49.0414 45.5228 51.494C43.8638 54.0936 43.4379 57.1485 44.0568 60.4921C44.2223 61.3863 44.997 62.0347 45.9 62.0347H55.35C55.9427 62.0347 56.5005 61.7524 56.8543 61.2734C57.2081 60.7944 57.3162 60.175 57.1459 59.6032C56.7779 58.3673 56.8885 57.6434 57.1021 57.2131C57.3672 56.679 58.0338 55.9542 59.4415 55.1309L59.459 55.1205C61.5809 53.8482 63.4628 52.6449 65.1012 51.5107C66.8508 50.3346 68.3478 49.0538 69.5689 47.6592C70.8544 46.2483 71.8319 44.6956 72.4722 43.0016C73.1767 41.2202 73.5 39.1887 73.5 36.9521C73.5 34.3511 72.936 31.9305 71.7842 29.7262C70.6551 27.565 69.1021 25.7202 67.1453 24.1996C65.2051 22.692 62.9572 21.539 60.4257 20.7245C57.9261 19.9041 55.2806 19.5 52.5 19.5Z" fill="#FEBD00"/><path d="M51.3 66.71C49.1278 66.71 47.2182 67.4708 45.6992 69.0009C44.1802 70.531 43.425 72.4547 43.425 74.6428C43.425 76.8309 44.1802 78.7546 45.6992 80.2847L45.729 80.314C47.2532 81.7827 49.1534 82.5 51.3 82.5C53.4466 82.5 55.3468 81.7827 56.871 80.314C58.4495 78.7903 59.25 76.8569 59.25 74.6428C59.25 72.4355 58.4556 70.5083 56.8867 68.9867C55.37 67.4661 53.4655 66.71 51.3 66.71Z" fill="#FEBD00"/>
  </symbol>
</svg>